<mxfile host="app.diagrams.net" agent="Mozilla/5.0 (Windows NT 10.0; Win64; x64) AppleWebKit/537.36 (KHTML, like Gecko) Chrome/130.0.0.0 Safari/537.36" version="24.8.3">
  <diagram id="C5RBs43oDa-KdzZeNtuy" name="Page-1">
    <mxGraphModel grid="1" page="1" gridSize="10" guides="1" tooltips="1" connect="1" arrows="1" fold="1" pageScale="1" pageWidth="827" pageHeight="1169" math="0" shadow="0">
      <root>
        <mxCell id="WIyWlLk6GJQsqaUBKTNV-0" />
        <mxCell id="WIyWlLk6GJQsqaUBKTNV-1" parent="WIyWlLk6GJQsqaUBKTNV-0" />
        <mxCell id="zkfFHV4jXpPFQw0GAbJ--0" value="User" style="swimlane;fontStyle=0;align=center;verticalAlign=top;childLayout=stackLayout;horizontal=1;startSize=26;horizontalStack=0;resizeParent=1;resizeLast=0;collapsible=1;marginBottom=0;rounded=0;shadow=0;strokeWidth=1;" vertex="1" parent="WIyWlLk6GJQsqaUBKTNV-1">
          <mxGeometry x="80" y="150" width="244.78" height="320" as="geometry">
            <mxRectangle x="90" y="210" width="160" height="26" as="alternateBounds" />
          </mxGeometry>
        </mxCell>
        <mxCell id="zkfFHV4jXpPFQw0GAbJ--1" value="+ email: string&#xa;" style="text;align=left;verticalAlign=top;spacingLeft=4;spacingRight=4;overflow=hidden;rotatable=0;points=[[0,0.5],[1,0.5]];portConstraint=eastwest;" vertex="1" parent="zkfFHV4jXpPFQw0GAbJ--0">
          <mxGeometry y="26" width="244.78" height="26" as="geometry" />
        </mxCell>
        <mxCell id="zkfFHV4jXpPFQw0GAbJ--2" value="+ username: string" style="text;align=left;verticalAlign=top;spacingLeft=4;spacingRight=4;overflow=hidden;rotatable=0;points=[[0,0.5],[1,0.5]];portConstraint=eastwest;rounded=0;shadow=0;html=0;" vertex="1" parent="zkfFHV4jXpPFQw0GAbJ--0">
          <mxGeometry y="52" width="244.78" height="26" as="geometry" />
        </mxCell>
        <mxCell id="zkfFHV4jXpPFQw0GAbJ--3" value="+ avatar: string" style="text;align=left;verticalAlign=top;spacingLeft=4;spacingRight=4;overflow=hidden;rotatable=0;points=[[0,0.5],[1,0.5]];portConstraint=eastwest;rounded=0;shadow=0;html=0;" vertex="1" parent="zkfFHV4jXpPFQw0GAbJ--0">
          <mxGeometry y="78" width="244.78" height="26" as="geometry" />
        </mxCell>
        <mxCell id="UHfOFCRN1A1ynxpq6Cjz-3" value="+ phone_number: string" style="text;align=left;verticalAlign=top;spacingLeft=4;spacingRight=4;overflow=hidden;rotatable=0;points=[[0,0.5],[1,0.5]];portConstraint=eastwest;rounded=0;shadow=0;html=0;" vertex="1" parent="zkfFHV4jXpPFQw0GAbJ--0">
          <mxGeometry y="104" width="244.78" height="26" as="geometry" />
        </mxCell>
        <mxCell id="UHfOFCRN1A1ynxpq6Cjz-88" value="+ password: string" style="text;align=left;verticalAlign=top;spacingLeft=4;spacingRight=4;overflow=hidden;rotatable=0;points=[[0,0.5],[1,0.5]];portConstraint=eastwest;rounded=0;shadow=0;html=0;" vertex="1" parent="zkfFHV4jXpPFQw0GAbJ--0">
          <mxGeometry y="130" width="244.78" height="26" as="geometry" />
        </mxCell>
        <mxCell id="vJOHHlm-QvzsCf7h9H-8-5" value="+ biography: string" style="text;align=left;verticalAlign=top;spacingLeft=4;spacingRight=4;overflow=hidden;rotatable=0;points=[[0,0.5],[1,0.5]];portConstraint=eastwest;rounded=0;shadow=0;html=0;" vertex="1" parent="zkfFHV4jXpPFQw0GAbJ--0">
          <mxGeometry y="156" width="244.78" height="26" as="geometry" />
        </mxCell>
        <mxCell id="vJOHHlm-QvzsCf7h9H-8-11" value="+ average_rating: float" style="text;align=left;verticalAlign=top;spacingLeft=4;spacingRight=4;overflow=hidden;rotatable=0;points=[[0,0.5],[1,0.5]];portConstraint=eastwest;rounded=0;shadow=0;html=0;" vertex="1" parent="zkfFHV4jXpPFQw0GAbJ--0">
          <mxGeometry y="182" width="244.78" height="26" as="geometry" />
        </mxCell>
        <mxCell id="UHfOFCRN1A1ynxpq6Cjz-84" value="" style="line;html=1;strokeWidth=1;align=left;verticalAlign=middle;spacingTop=-1;spacingLeft=3;spacingRight=3;rotatable=0;labelPosition=right;points=[];portConstraint=eastwest;" vertex="1" parent="zkfFHV4jXpPFQw0GAbJ--0">
          <mxGeometry y="208" width="244.78" height="8" as="geometry" />
        </mxCell>
        <mxCell id="UHfOFCRN1A1ynxpq6Cjz-83" value="+ update_username(string: username): void" style="text;align=left;verticalAlign=top;spacingLeft=4;spacingRight=4;overflow=hidden;rotatable=0;points=[[0,0.5],[1,0.5]];portConstraint=eastwest;" vertex="1" parent="zkfFHV4jXpPFQw0GAbJ--0">
          <mxGeometry y="216" width="244.78" height="26" as="geometry" />
        </mxCell>
        <mxCell id="UHfOFCRN1A1ynxpq6Cjz-86" value="+ update_avatar(string: avatar): void" style="text;align=left;verticalAlign=top;spacingLeft=4;spacingRight=4;overflow=hidden;rotatable=0;points=[[0,0.5],[1,0.5]];portConstraint=eastwest;" vertex="1" parent="zkfFHV4jXpPFQw0GAbJ--0">
          <mxGeometry y="242" width="244.78" height="26" as="geometry" />
        </mxCell>
        <mxCell id="UHfOFCRN1A1ynxpq6Cjz-87" value="+ update_number(string: number): void" style="text;align=left;verticalAlign=top;spacingLeft=4;spacingRight=4;overflow=hidden;rotatable=0;points=[[0,0.5],[1,0.5]];portConstraint=eastwest;" vertex="1" parent="zkfFHV4jXpPFQw0GAbJ--0">
          <mxGeometry y="268" width="244.78" height="26" as="geometry" />
        </mxCell>
        <mxCell id="UHfOFCRN1A1ynxpq6Cjz-89" value="+ update_password(string: password): void" style="text;align=left;verticalAlign=top;spacingLeft=4;spacingRight=4;overflow=hidden;rotatable=0;points=[[0,0.5],[1,0.5]];portConstraint=eastwest;" vertex="1" parent="zkfFHV4jXpPFQw0GAbJ--0">
          <mxGeometry y="294" width="244.78" height="26" as="geometry" />
        </mxCell>
        <mxCell id="sbcRyJg-CCsPc8LKmD8r-0" value="creates" style="edgeStyle=orthogonalEdgeStyle;rounded=0;orthogonalLoop=1;jettySize=auto;html=1;endArrow=none;endFill=0;startArrow=none;startFill=0;" edge="1" parent="WIyWlLk6GJQsqaUBKTNV-1" source="o6BWr_yjtG34OBSjzBK7-0" target="zkfFHV4jXpPFQw0GAbJ--0">
          <mxGeometry relative="1" as="geometry">
            <Array as="points">
              <mxPoint x="40" y="350" />
              <mxPoint x="40" y="350" />
            </Array>
          </mxGeometry>
        </mxCell>
        <mxCell id="sbcRyJg-CCsPc8LKmD8r-1" value="1" style="edgeLabel;html=1;align=center;verticalAlign=middle;resizable=0;points=[];" connectable="0" vertex="1" parent="sbcRyJg-CCsPc8LKmD8r-0">
          <mxGeometry x="0.741" y="1" relative="1" as="geometry">
            <mxPoint y="-9" as="offset" />
          </mxGeometry>
        </mxCell>
        <mxCell id="sbcRyJg-CCsPc8LKmD8r-2" value="0..*" style="edgeLabel;html=1;align=center;verticalAlign=middle;resizable=0;points=[];" connectable="0" vertex="1" parent="sbcRyJg-CCsPc8LKmD8r-0">
          <mxGeometry x="-0.821" y="-2" relative="1" as="geometry">
            <mxPoint x="8" y="-12" as="offset" />
          </mxGeometry>
        </mxCell>
        <mxCell id="o6BWr_yjtG34OBSjzBK7-0" value="Listing" style="swimlane;fontStyle=0;align=center;verticalAlign=top;childLayout=stackLayout;horizontal=1;startSize=26;horizontalStack=0;resizeParent=1;resizeLast=0;collapsible=1;marginBottom=0;rounded=0;shadow=0;strokeWidth=1;" vertex="1" parent="WIyWlLk6GJQsqaUBKTNV-1">
          <mxGeometry x="-285" y="150" width="290" height="400" as="geometry">
            <mxRectangle x="220" y="120" width="160" height="26" as="alternateBounds" />
          </mxGeometry>
        </mxCell>
        <mxCell id="BERN74U3gorJlpF5LtXb-3" value="+ title: string" style="text;align=left;verticalAlign=top;spacingLeft=4;spacingRight=4;overflow=hidden;rotatable=0;points=[[0,0.5],[1,0.5]];portConstraint=eastwest;rounded=0;shadow=0;html=0;" vertex="1" parent="o6BWr_yjtG34OBSjzBK7-0">
          <mxGeometry y="26" width="290" height="26" as="geometry" />
        </mxCell>
        <mxCell id="BERN74U3gorJlpF5LtXb-4" value="+ description: string" style="text;align=left;verticalAlign=top;spacingLeft=4;spacingRight=4;overflow=hidden;rotatable=0;points=[[0,0.5],[1,0.5]];portConstraint=eastwest;rounded=0;shadow=0;html=0;" vertex="1" parent="o6BWr_yjtG34OBSjzBK7-0">
          <mxGeometry y="52" width="290" height="26" as="geometry" />
        </mxCell>
        <mxCell id="BERN74U3gorJlpF5LtXb-5" value="+ listing_type: ListingType" style="text;align=left;verticalAlign=top;spacingLeft=4;spacingRight=4;overflow=hidden;rotatable=0;points=[[0,0.5],[1,0.5]];portConstraint=eastwest;rounded=0;shadow=0;html=0;" vertex="1" parent="o6BWr_yjtG34OBSjzBK7-0">
          <mxGeometry y="78" width="290" height="26" as="geometry" />
        </mxCell>
        <mxCell id="BERN74U3gorJlpF5LtXb-6" value="+ category: Category" style="text;align=left;verticalAlign=top;spacingLeft=4;spacingRight=4;overflow=hidden;rotatable=0;points=[[0,0.5],[1,0.5]];portConstraint=eastwest;rounded=0;shadow=0;html=0;" vertex="1" parent="o6BWr_yjtG34OBSjzBK7-0">
          <mxGeometry y="104" width="290" height="26" as="geometry" />
        </mxCell>
        <mxCell id="UHfOFCRN1A1ynxpq6Cjz-122" value="+ photos: Array&lt;ListingPhoto&gt;" style="text;align=left;verticalAlign=top;spacingLeft=4;spacingRight=4;overflow=hidden;rotatable=0;points=[[0,0.5],[1,0.5]];portConstraint=eastwest;rounded=0;shadow=0;html=0;" vertex="1" parent="o6BWr_yjtG34OBSjzBK7-0">
          <mxGeometry y="130" width="290" height="26" as="geometry" />
        </mxCell>
        <mxCell id="UHfOFCRN1A1ynxpq6Cjz-124" value="+ locations: Array&lt;ListingLocation&gt;&#xa;" style="text;align=left;verticalAlign=top;spacingLeft=4;spacingRight=4;overflow=hidden;rotatable=0;points=[[0,0.5],[1,0.5]];portConstraint=eastwest;rounded=0;shadow=0;html=0;" vertex="1" parent="o6BWr_yjtG34OBSjzBK7-0">
          <mxGeometry y="156" width="290" height="26" as="geometry" />
        </mxCell>
        <mxCell id="UHfOFCRN1A1ynxpq6Cjz-126" value="+ rates: Array&lt;ListingRate&gt;&#xa;" style="text;align=left;verticalAlign=top;spacingLeft=4;spacingRight=4;overflow=hidden;rotatable=0;points=[[0,0.5],[1,0.5]];portConstraint=eastwest;rounded=0;shadow=0;html=0;" vertex="1" parent="o6BWr_yjtG34OBSjzBK7-0">
          <mxGeometry y="182" width="290" height="26" as="geometry" />
        </mxCell>
        <mxCell id="o6BWr_yjtG34OBSjzBK7-1" value="+ uploaded_by: User" style="text;align=left;verticalAlign=top;spacingLeft=4;spacingRight=4;overflow=hidden;rotatable=0;points=[[0,0.5],[1,0.5]];portConstraint=eastwest;" vertex="1" parent="o6BWr_yjtG34OBSjzBK7-0">
          <mxGeometry y="208" width="290" height="26" as="geometry" />
        </mxCell>
        <mxCell id="o6BWr_yjtG34OBSjzBK7-2" value="+ created_at: datetime" style="text;align=left;verticalAlign=top;spacingLeft=4;spacingRight=4;overflow=hidden;rotatable=0;points=[[0,0.5],[1,0.5]];portConstraint=eastwest;rounded=0;shadow=0;html=0;" vertex="1" parent="o6BWr_yjtG34OBSjzBK7-0">
          <mxGeometry y="234" width="290" height="28" as="geometry" />
        </mxCell>
        <mxCell id="o6BWr_yjtG34OBSjzBK7-3" value="+ updated_at: datetime" style="text;align=left;verticalAlign=top;spacingLeft=4;spacingRight=4;overflow=hidden;rotatable=0;points=[[0,0.5],[1,0.5]];portConstraint=eastwest;rounded=0;shadow=0;html=0;" vertex="1" parent="o6BWr_yjtG34OBSjzBK7-0">
          <mxGeometry y="262" width="290" height="26" as="geometry" />
        </mxCell>
        <mxCell id="UHfOFCRN1A1ynxpq6Cjz-98" value="" style="line;html=1;strokeWidth=1;align=left;verticalAlign=middle;spacingTop=-1;spacingLeft=3;spacingRight=3;rotatable=0;labelPosition=right;points=[];portConstraint=eastwest;" vertex="1" parent="o6BWr_yjtG34OBSjzBK7-0">
          <mxGeometry y="288" width="290" height="8" as="geometry" />
        </mxCell>
        <mxCell id="UHfOFCRN1A1ynxpq6Cjz-97" value="+ update_title(title: string): void" style="text;align=left;verticalAlign=top;spacingLeft=4;spacingRight=4;overflow=hidden;rotatable=0;points=[[0,0.5],[1,0.5]];portConstraint=eastwest;" vertex="1" parent="o6BWr_yjtG34OBSjzBK7-0">
          <mxGeometry y="296" width="290" height="26" as="geometry" />
        </mxCell>
        <mxCell id="UHfOFCRN1A1ynxpq6Cjz-100" value="+ update_description(description: string): void" style="text;align=left;verticalAlign=top;spacingLeft=4;spacingRight=4;overflow=hidden;rotatable=0;points=[[0,0.5],[1,0.5]];portConstraint=eastwest;" vertex="1" parent="o6BWr_yjtG34OBSjzBK7-0">
          <mxGeometry y="322" width="290" height="26" as="geometry" />
        </mxCell>
        <mxCell id="UHfOFCRN1A1ynxpq6Cjz-101" value="+ update_category(category: Category): void" style="text;align=left;verticalAlign=top;spacingLeft=4;spacingRight=4;overflow=hidden;rotatable=0;points=[[0,0.5],[1,0.5]];portConstraint=eastwest;" vertex="1" parent="o6BWr_yjtG34OBSjzBK7-0">
          <mxGeometry y="348" width="290" height="26" as="geometry" />
        </mxCell>
        <mxCell id="UHfOFCRN1A1ynxpq6Cjz-102" value="+ update_listing_type(listing_type: ListingType): void" style="text;align=left;verticalAlign=top;spacingLeft=4;spacingRight=4;overflow=hidden;rotatable=0;points=[[0,0.5],[1,0.5]];portConstraint=eastwest;" vertex="1" parent="o6BWr_yjtG34OBSjzBK7-0">
          <mxGeometry y="374" width="290" height="26" as="geometry" />
        </mxCell>
        <mxCell id="UHfOFCRN1A1ynxpq6Cjz-129" style="edgeStyle=orthogonalEdgeStyle;shape=connector;rounded=0;orthogonalLoop=1;jettySize=auto;html=1;strokeColor=default;align=center;verticalAlign=middle;fontFamily=Helvetica;fontSize=11;fontColor=default;labelBackgroundColor=default;startSize=15;endArrow=none;endFill=0;endSize=15;" edge="1" parent="WIyWlLk6GJQsqaUBKTNV-1" source="o6BWr_yjtG34OBSjzBK7-6" target="o6BWr_yjtG34OBSjzBK7-0">
          <mxGeometry relative="1" as="geometry">
            <Array as="points">
              <mxPoint x="-330" y="510" />
              <mxPoint x="-330" y="510" />
            </Array>
          </mxGeometry>
        </mxCell>
        <mxCell id="UHfOFCRN1A1ynxpq6Cjz-130" value="1" style="edgeLabel;html=1;align=center;verticalAlign=middle;resizable=0;points=[];fontFamily=Helvetica;fontSize=11;fontColor=default;labelBackgroundColor=default;" connectable="0" vertex="1" parent="UHfOFCRN1A1ynxpq6Cjz-129">
          <mxGeometry x="0.7277" y="1" relative="1" as="geometry">
            <mxPoint y="-9" as="offset" />
          </mxGeometry>
        </mxCell>
        <mxCell id="UHfOFCRN1A1ynxpq6Cjz-132" value="0..*" style="edgeLabel;html=1;align=center;verticalAlign=middle;resizable=0;points=[];fontFamily=Helvetica;fontSize=11;fontColor=default;labelBackgroundColor=default;" connectable="0" vertex="1" parent="UHfOFCRN1A1ynxpq6Cjz-129">
          <mxGeometry x="-0.7436" relative="1" as="geometry">
            <mxPoint y="-9" as="offset" />
          </mxGeometry>
        </mxCell>
        <mxCell id="o6BWr_yjtG34OBSjzBK7-6" value="ListingPhoto" style="swimlane;fontStyle=0;align=center;verticalAlign=top;childLayout=stackLayout;horizontal=1;startSize=26;horizontalStack=0;resizeParent=1;resizeLast=0;collapsible=1;marginBottom=0;rounded=0;shadow=0;strokeWidth=1;" vertex="1" parent="WIyWlLk6GJQsqaUBKTNV-1">
          <mxGeometry x="-580" y="470" width="160" height="60" as="geometry">
            <mxRectangle x="220" y="120" width="160" height="26" as="alternateBounds" />
          </mxGeometry>
        </mxCell>
        <mxCell id="o6BWr_yjtG34OBSjzBK7-8" value="image_url: string" style="text;align=left;verticalAlign=top;spacingLeft=4;spacingRight=4;overflow=hidden;rotatable=0;points=[[0,0.5],[1,0.5]];portConstraint=eastwest;rounded=0;shadow=0;html=0;" vertex="1" parent="o6BWr_yjtG34OBSjzBK7-6">
          <mxGeometry y="26" width="160" height="26" as="geometry" />
        </mxCell>
        <mxCell id="UHfOFCRN1A1ynxpq6Cjz-125" style="edgeStyle=orthogonalEdgeStyle;shape=connector;rounded=0;orthogonalLoop=1;jettySize=auto;html=1;strokeColor=default;align=center;verticalAlign=middle;fontFamily=Helvetica;fontSize=11;fontColor=default;labelBackgroundColor=default;startSize=15;endArrow=none;endFill=0;endSize=15;" edge="1" parent="WIyWlLk6GJQsqaUBKTNV-1" source="o6BWr_yjtG34OBSjzBK7-12" target="o6BWr_yjtG34OBSjzBK7-0">
          <mxGeometry relative="1" as="geometry">
            <Array as="points">
              <mxPoint x="-190" y="730" />
              <mxPoint x="-190" y="730" />
            </Array>
          </mxGeometry>
        </mxCell>
        <mxCell id="UHfOFCRN1A1ynxpq6Cjz-133" value="1" style="edgeLabel;html=1;align=center;verticalAlign=middle;resizable=0;points=[];fontFamily=Helvetica;fontSize=11;fontColor=default;labelBackgroundColor=default;" connectable="0" vertex="1" parent="UHfOFCRN1A1ynxpq6Cjz-125">
          <mxGeometry x="0.8981" relative="1" as="geometry">
            <mxPoint x="21" as="offset" />
          </mxGeometry>
        </mxCell>
        <mxCell id="UHfOFCRN1A1ynxpq6Cjz-134" value="&lt;div&gt;1..*&lt;/div&gt;" style="edgeLabel;html=1;align=center;verticalAlign=middle;resizable=0;points=[];fontFamily=Helvetica;fontSize=11;fontColor=default;labelBackgroundColor=default;" connectable="0" vertex="1" parent="UHfOFCRN1A1ynxpq6Cjz-125">
          <mxGeometry x="-0.8824" y="1" relative="1" as="geometry">
            <mxPoint x="21" as="offset" />
          </mxGeometry>
        </mxCell>
        <mxCell id="o6BWr_yjtG34OBSjzBK7-12" value="ListingLocation" style="swimlane;fontStyle=0;align=center;verticalAlign=top;childLayout=stackLayout;horizontal=1;startSize=26;horizontalStack=0;resizeParent=1;resizeLast=0;collapsible=1;marginBottom=0;rounded=0;shadow=0;strokeWidth=1;" vertex="1" parent="WIyWlLk6GJQsqaUBKTNV-1">
          <mxGeometry x="-329" y="798" width="160" height="140" as="geometry">
            <mxRectangle x="220" y="120" width="160" height="26" as="alternateBounds" />
          </mxGeometry>
        </mxCell>
        <mxCell id="o6BWr_yjtG34OBSjzBK7-14" value="latitude: float" style="text;align=left;verticalAlign=top;spacingLeft=4;spacingRight=4;overflow=hidden;rotatable=0;points=[[0,0.5],[1,0.5]];portConstraint=eastwest;rounded=0;shadow=0;html=0;" vertex="1" parent="o6BWr_yjtG34OBSjzBK7-12">
          <mxGeometry y="26" width="160" height="26" as="geometry" />
        </mxCell>
        <mxCell id="o6BWr_yjtG34OBSjzBK7-15" value="longitude: float" style="text;align=left;verticalAlign=top;spacingLeft=4;spacingRight=4;overflow=hidden;rotatable=0;points=[[0,0.5],[1,0.5]];portConstraint=eastwest;rounded=0;shadow=0;html=0;" vertex="1" parent="o6BWr_yjtG34OBSjzBK7-12">
          <mxGeometry y="52" width="160" height="26" as="geometry" />
        </mxCell>
        <mxCell id="UHfOFCRN1A1ynxpq6Cjz-77" value="query: string" style="text;align=left;verticalAlign=top;spacingLeft=4;spacingRight=4;overflow=hidden;rotatable=0;points=[[0,0.5],[1,0.5]];portConstraint=eastwest;rounded=0;shadow=0;html=0;" vertex="1" parent="o6BWr_yjtG34OBSjzBK7-12">
          <mxGeometry y="78" width="160" height="26" as="geometry" />
        </mxCell>
        <mxCell id="UHfOFCRN1A1ynxpq6Cjz-78" value="notes: string" style="text;align=left;verticalAlign=top;spacingLeft=4;spacingRight=4;overflow=hidden;rotatable=0;points=[[0,0.5],[1,0.5]];portConstraint=eastwest;rounded=0;shadow=0;html=0;" vertex="1" parent="o6BWr_yjtG34OBSjzBK7-12">
          <mxGeometry y="104" width="160" height="26" as="geometry" />
        </mxCell>
        <mxCell id="UHfOFCRN1A1ynxpq6Cjz-127" style="edgeStyle=orthogonalEdgeStyle;shape=connector;rounded=0;orthogonalLoop=1;jettySize=auto;html=1;strokeColor=default;align=center;verticalAlign=middle;fontFamily=Helvetica;fontSize=11;fontColor=default;labelBackgroundColor=default;startSize=15;endArrow=none;endFill=0;endSize=15;" edge="1" parent="WIyWlLk6GJQsqaUBKTNV-1" source="o6BWr_yjtG34OBSjzBK7-18" target="o6BWr_yjtG34OBSjzBK7-0">
          <mxGeometry relative="1" as="geometry">
            <Array as="points">
              <mxPoint x="-210" y="738" />
            </Array>
          </mxGeometry>
        </mxCell>
        <mxCell id="UHfOFCRN1A1ynxpq6Cjz-135" value="1" style="edgeLabel;html=1;align=center;verticalAlign=middle;resizable=0;points=[];fontFamily=Helvetica;fontSize=11;fontColor=default;labelBackgroundColor=default;" connectable="0" vertex="1" parent="UHfOFCRN1A1ynxpq6Cjz-127">
          <mxGeometry x="0.9472" y="2" relative="1" as="geometry">
            <mxPoint x="-8" as="offset" />
          </mxGeometry>
        </mxCell>
        <mxCell id="UHfOFCRN1A1ynxpq6Cjz-136" value="1..*" style="edgeLabel;html=1;align=center;verticalAlign=middle;resizable=0;points=[];fontFamily=Helvetica;fontSize=11;fontColor=default;labelBackgroundColor=default;" connectable="0" vertex="1" parent="UHfOFCRN1A1ynxpq6Cjz-127">
          <mxGeometry x="-0.9546" y="2" relative="1" as="geometry">
            <mxPoint x="11" y="-6" as="offset" />
          </mxGeometry>
        </mxCell>
        <mxCell id="o6BWr_yjtG34OBSjzBK7-18" value="ListingRate" style="swimlane;fontStyle=0;align=center;verticalAlign=top;childLayout=stackLayout;horizontal=1;startSize=26;horizontalStack=0;resizeParent=1;resizeLast=0;collapsible=1;marginBottom=0;rounded=0;shadow=0;strokeWidth=1;" vertex="1" parent="WIyWlLk6GJQsqaUBKTNV-1">
          <mxGeometry x="-580" y="686" width="160" height="84" as="geometry">
            <mxRectangle x="220" y="120" width="160" height="26" as="alternateBounds" />
          </mxGeometry>
        </mxCell>
        <mxCell id="o6BWr_yjtG34OBSjzBK7-20" value="time_unit: TimeUnit" style="text;align=left;verticalAlign=top;spacingLeft=4;spacingRight=4;overflow=hidden;rotatable=0;points=[[0,0.5],[1,0.5]];portConstraint=eastwest;rounded=0;shadow=0;html=0;" vertex="1" parent="o6BWr_yjtG34OBSjzBK7-18">
          <mxGeometry y="26" width="160" height="26" as="geometry" />
        </mxCell>
        <mxCell id="o6BWr_yjtG34OBSjzBK7-21" value="rates: float" style="text;align=left;verticalAlign=top;spacingLeft=4;spacingRight=4;overflow=hidden;rotatable=0;points=[[0,0.5],[1,0.5]];portConstraint=eastwest;rounded=0;shadow=0;html=0;" vertex="1" parent="o6BWr_yjtG34OBSjzBK7-18">
          <mxGeometry y="52" width="160" height="26" as="geometry" />
        </mxCell>
        <mxCell id="UHfOFCRN1A1ynxpq6Cjz-111" style="edgeStyle=orthogonalEdgeStyle;shape=connector;rounded=0;orthogonalLoop=1;jettySize=auto;html=1;strokeColor=default;align=center;verticalAlign=middle;fontFamily=Helvetica;fontSize=11;fontColor=default;labelBackgroundColor=default;startSize=15;endArrow=none;endFill=0;endSize=15;startArrow=diamondThin;startFill=1;" edge="1" parent="WIyWlLk6GJQsqaUBKTNV-1" source="o6BWr_yjtG34OBSjzBK7-24" target="o6BWr_yjtG34OBSjzBK7-18">
          <mxGeometry relative="1" as="geometry">
            <Array as="points">
              <mxPoint x="-610" y="758" />
              <mxPoint x="-610" y="758" />
            </Array>
          </mxGeometry>
        </mxCell>
        <mxCell id="UHfOFCRN1A1ynxpq6Cjz-115" value="1" style="edgeLabel;html=1;align=center;verticalAlign=middle;resizable=0;points=[];fontFamily=Helvetica;fontSize=11;fontColor=default;labelBackgroundColor=default;" connectable="0" vertex="1" parent="UHfOFCRN1A1ynxpq6Cjz-111">
          <mxGeometry x="-0.5714" y="-1" relative="1" as="geometry">
            <mxPoint y="-9" as="offset" />
          </mxGeometry>
        </mxCell>
        <mxCell id="UHfOFCRN1A1ynxpq6Cjz-116" value="1" style="edgeLabel;html=1;align=center;verticalAlign=middle;resizable=0;points=[];fontFamily=Helvetica;fontSize=11;fontColor=default;labelBackgroundColor=default;" connectable="0" vertex="1" parent="UHfOFCRN1A1ynxpq6Cjz-111">
          <mxGeometry x="0.7532" y="-1" relative="1" as="geometry">
            <mxPoint y="-9" as="offset" />
          </mxGeometry>
        </mxCell>
        <mxCell id="o6BWr_yjtG34OBSjzBK7-24" value="&lt;&lt;enumeration&gt;&gt;&#xa;TimeUnit" style="swimlane;fontStyle=0;align=center;verticalAlign=top;childLayout=stackLayout;horizontal=1;startSize=44;horizontalStack=0;resizeParent=1;resizeLast=0;collapsible=1;marginBottom=0;rounded=0;shadow=0;strokeWidth=1;" vertex="1" parent="WIyWlLk6GJQsqaUBKTNV-1">
          <mxGeometry x="-850" y="686" width="160" height="144" as="geometry">
            <mxRectangle x="220" y="120" width="160" height="26" as="alternateBounds" />
          </mxGeometry>
        </mxCell>
        <mxCell id="o6BWr_yjtG34OBSjzBK7-25" value="ONETIME" style="text;align=left;verticalAlign=top;spacingLeft=4;spacingRight=4;overflow=hidden;rotatable=0;points=[[0,0.5],[1,0.5]];portConstraint=eastwest;" vertex="1" parent="o6BWr_yjtG34OBSjzBK7-24">
          <mxGeometry y="44" width="160" height="22" as="geometry" />
        </mxCell>
        <mxCell id="o6BWr_yjtG34OBSjzBK7-26" value="HOURLY" style="text;align=left;verticalAlign=top;spacingLeft=4;spacingRight=4;overflow=hidden;rotatable=0;points=[[0,0.5],[1,0.5]];portConstraint=eastwest;rounded=0;shadow=0;html=0;" vertex="1" parent="o6BWr_yjtG34OBSjzBK7-24">
          <mxGeometry y="66" width="160" height="26" as="geometry" />
        </mxCell>
        <mxCell id="o6BWr_yjtG34OBSjzBK7-27" value="DAILY" style="text;align=left;verticalAlign=top;spacingLeft=4;spacingRight=4;overflow=hidden;rotatable=0;points=[[0,0.5],[1,0.5]];portConstraint=eastwest;rounded=0;shadow=0;html=0;" vertex="1" parent="o6BWr_yjtG34OBSjzBK7-24">
          <mxGeometry y="92" width="160" height="26" as="geometry" />
        </mxCell>
        <mxCell id="o6BWr_yjtG34OBSjzBK7-29" value="WEEKLY" style="text;align=left;verticalAlign=top;spacingLeft=4;spacingRight=4;overflow=hidden;rotatable=0;points=[[0,0.5],[1,0.5]];portConstraint=eastwest;" vertex="1" parent="o6BWr_yjtG34OBSjzBK7-24">
          <mxGeometry y="118" width="160" height="26" as="geometry" />
        </mxCell>
        <mxCell id="UHfOFCRN1A1ynxpq6Cjz-104" style="edgeStyle=orthogonalEdgeStyle;shape=connector;rounded=0;orthogonalLoop=1;jettySize=auto;html=1;strokeColor=default;align=center;verticalAlign=middle;fontFamily=Helvetica;fontSize=11;fontColor=default;labelBackgroundColor=default;startSize=15;endArrow=none;endFill=0;endSize=15;startArrow=diamondThin;startFill=1;" edge="1" parent="WIyWlLk6GJQsqaUBKTNV-1" source="o6BWr_yjtG34OBSjzBK7-30" target="o6BWr_yjtG34OBSjzBK7-0">
          <mxGeometry relative="1" as="geometry">
            <Array as="points">
              <mxPoint x="-300" y="200" />
              <mxPoint x="-300" y="200" />
            </Array>
          </mxGeometry>
        </mxCell>
        <mxCell id="UHfOFCRN1A1ynxpq6Cjz-106" value="1" style="edgeLabel;html=1;align=center;verticalAlign=middle;resizable=0;points=[];fontFamily=Helvetica;fontSize=11;fontColor=default;labelBackgroundColor=default;" connectable="0" vertex="1" parent="UHfOFCRN1A1ynxpq6Cjz-104">
          <mxGeometry x="-0.6106" relative="1" as="geometry">
            <mxPoint y="-11" as="offset" />
          </mxGeometry>
        </mxCell>
        <mxCell id="UHfOFCRN1A1ynxpq6Cjz-107" value="1" style="edgeLabel;html=1;align=center;verticalAlign=middle;resizable=0;points=[];fontFamily=Helvetica;fontSize=11;fontColor=default;labelBackgroundColor=default;" connectable="0" vertex="1" parent="UHfOFCRN1A1ynxpq6Cjz-104">
          <mxGeometry x="0.691" y="-2" relative="1" as="geometry">
            <mxPoint y="-12" as="offset" />
          </mxGeometry>
        </mxCell>
        <mxCell id="o6BWr_yjtG34OBSjzBK7-30" value="&lt;&lt;enumeration&gt;&gt;&#xa;ListingType" style="swimlane;fontStyle=0;align=center;verticalAlign=top;childLayout=stackLayout;horizontal=1;startSize=40;horizontalStack=0;resizeParent=1;resizeLast=0;collapsible=1;marginBottom=0;rounded=0;shadow=0;strokeWidth=1;" vertex="1" parent="WIyWlLk6GJQsqaUBKTNV-1">
          <mxGeometry x="-580" y="150" width="160" height="100" as="geometry">
            <mxRectangle x="220" y="120" width="160" height="26" as="alternateBounds" />
          </mxGeometry>
        </mxCell>
        <mxCell id="o6BWr_yjtG34OBSjzBK7-31" value="RENTAL" style="text;align=left;verticalAlign=top;spacingLeft=4;spacingRight=4;overflow=hidden;rotatable=0;points=[[0,0.5],[1,0.5]];portConstraint=eastwest;" vertex="1" parent="o6BWr_yjtG34OBSjzBK7-30">
          <mxGeometry y="40" width="160" height="26" as="geometry" />
        </mxCell>
        <mxCell id="o6BWr_yjtG34OBSjzBK7-32" value="SERVICE" style="text;align=left;verticalAlign=top;spacingLeft=4;spacingRight=4;overflow=hidden;rotatable=0;points=[[0,0.5],[1,0.5]];portConstraint=eastwest;rounded=0;shadow=0;html=0;" vertex="1" parent="o6BWr_yjtG34OBSjzBK7-30">
          <mxGeometry y="66" width="160" height="26" as="geometry" />
        </mxCell>
        <mxCell id="UHfOFCRN1A1ynxpq6Cjz-105" style="edgeStyle=orthogonalEdgeStyle;shape=connector;rounded=0;orthogonalLoop=1;jettySize=auto;html=1;strokeColor=default;align=center;verticalAlign=middle;fontFamily=Helvetica;fontSize=11;fontColor=default;labelBackgroundColor=default;startSize=15;endArrow=none;endFill=0;endSize=15;startArrow=diamondThin;startFill=1;" edge="1" parent="WIyWlLk6GJQsqaUBKTNV-1" source="o6BWr_yjtG34OBSjzBK7-36" target="o6BWr_yjtG34OBSjzBK7-0">
          <mxGeometry relative="1" as="geometry">
            <Array as="points">
              <mxPoint x="-320" y="370" />
              <mxPoint x="-320" y="370" />
            </Array>
          </mxGeometry>
        </mxCell>
        <mxCell id="UHfOFCRN1A1ynxpq6Cjz-108" value="1" style="edgeLabel;html=1;align=center;verticalAlign=middle;resizable=0;points=[];fontFamily=Helvetica;fontSize=11;fontColor=default;labelBackgroundColor=default;" connectable="0" vertex="1" parent="UHfOFCRN1A1ynxpq6Cjz-105">
          <mxGeometry x="-0.6741" y="1" relative="1" as="geometry">
            <mxPoint y="-9" as="offset" />
          </mxGeometry>
        </mxCell>
        <mxCell id="UHfOFCRN1A1ynxpq6Cjz-109" value="1" style="edgeLabel;html=1;align=center;verticalAlign=middle;resizable=0;points=[];fontFamily=Helvetica;fontSize=11;fontColor=default;labelBackgroundColor=default;" connectable="0" vertex="1" parent="UHfOFCRN1A1ynxpq6Cjz-105">
          <mxGeometry x="0.691" relative="1" as="geometry">
            <mxPoint y="-10" as="offset" />
          </mxGeometry>
        </mxCell>
        <mxCell id="o6BWr_yjtG34OBSjzBK7-36" value="&lt;&lt;enumeration&gt;&gt;&#xa;Category" style="swimlane;fontStyle=0;align=center;verticalAlign=top;childLayout=stackLayout;horizontal=1;startSize=40;horizontalStack=0;resizeParent=1;resizeLast=0;collapsible=1;marginBottom=0;rounded=0;shadow=0;strokeWidth=1;" vertex="1" parent="WIyWlLk6GJQsqaUBKTNV-1">
          <mxGeometry x="-580" y="310" width="160" height="118" as="geometry">
            <mxRectangle x="220" y="120" width="160" height="26" as="alternateBounds" />
          </mxGeometry>
        </mxCell>
        <mxCell id="o6BWr_yjtG34OBSjzBK7-37" value="ELECTRONICS" style="text;align=left;verticalAlign=top;spacingLeft=4;spacingRight=4;overflow=hidden;rotatable=0;points=[[0,0.5],[1,0.5]];portConstraint=eastwest;" vertex="1" parent="o6BWr_yjtG34OBSjzBK7-36">
          <mxGeometry y="40" width="160" height="26" as="geometry" />
        </mxCell>
        <mxCell id="o6BWr_yjtG34OBSjzBK7-38" value="SUPPLIES" style="text;align=left;verticalAlign=top;spacingLeft=4;spacingRight=4;overflow=hidden;rotatable=0;points=[[0,0.5],[1,0.5]];portConstraint=eastwest;rounded=0;shadow=0;html=0;" vertex="1" parent="o6BWr_yjtG34OBSjzBK7-36">
          <mxGeometry y="66" width="160" height="26" as="geometry" />
        </mxCell>
        <mxCell id="o6BWr_yjtG34OBSjzBK7-39" value="SERVICES" style="text;align=left;verticalAlign=top;spacingLeft=4;spacingRight=4;overflow=hidden;rotatable=0;points=[[0,0.5],[1,0.5]];portConstraint=eastwest;rounded=0;shadow=0;html=0;" vertex="1" parent="o6BWr_yjtG34OBSjzBK7-36">
          <mxGeometry y="92" width="160" height="26" as="geometry" />
        </mxCell>
        <mxCell id="UHfOFCRN1A1ynxpq6Cjz-103" style="edgeStyle=orthogonalEdgeStyle;shape=connector;rounded=0;orthogonalLoop=1;jettySize=auto;html=1;strokeColor=default;align=center;verticalAlign=middle;fontFamily=Helvetica;fontSize=11;fontColor=default;labelBackgroundColor=default;startSize=15;endArrow=none;endFill=0;endSize=15;" edge="1" parent="WIyWlLk6GJQsqaUBKTNV-1" source="o6BWr_yjtG34OBSjzBK7-42" target="zkfFHV4jXpPFQw0GAbJ--0">
          <mxGeometry relative="1" as="geometry" />
        </mxCell>
        <mxCell id="UHfOFCRN1A1ynxpq6Cjz-147" value="makes" style="edgeLabel;html=1;align=center;verticalAlign=middle;resizable=0;points=[];fontFamily=Helvetica;fontSize=11;fontColor=default;labelBackgroundColor=default;" connectable="0" vertex="1" parent="UHfOFCRN1A1ynxpq6Cjz-103">
          <mxGeometry x="-0.1102" relative="1" as="geometry">
            <mxPoint as="offset" />
          </mxGeometry>
        </mxCell>
        <mxCell id="UHfOFCRN1A1ynxpq6Cjz-148" value="1" style="edgeLabel;html=1;align=center;verticalAlign=middle;resizable=0;points=[];fontFamily=Helvetica;fontSize=11;fontColor=default;labelBackgroundColor=default;" connectable="0" vertex="1" parent="UHfOFCRN1A1ynxpq6Cjz-103">
          <mxGeometry x="0.9672" y="-1" relative="1" as="geometry">
            <mxPoint as="offset" />
          </mxGeometry>
        </mxCell>
        <mxCell id="UHfOFCRN1A1ynxpq6Cjz-149" value="0..*" style="edgeLabel;html=1;align=center;verticalAlign=middle;resizable=0;points=[];fontFamily=Helvetica;fontSize=11;fontColor=default;labelBackgroundColor=default;" connectable="0" vertex="1" parent="UHfOFCRN1A1ynxpq6Cjz-103">
          <mxGeometry x="-0.9451" y="2" relative="1" as="geometry">
            <mxPoint y="-16" as="offset" />
          </mxGeometry>
        </mxCell>
        <mxCell id="UHfOFCRN1A1ynxpq6Cjz-110" style="edgeStyle=orthogonalEdgeStyle;shape=connector;rounded=0;orthogonalLoop=1;jettySize=auto;html=1;strokeColor=default;align=center;verticalAlign=middle;fontFamily=Helvetica;fontSize=11;fontColor=default;labelBackgroundColor=default;startSize=15;endArrow=none;endFill=0;endSize=15;" edge="1" parent="WIyWlLk6GJQsqaUBKTNV-1" source="o6BWr_yjtG34OBSjzBK7-42" target="o6BWr_yjtG34OBSjzBK7-48">
          <mxGeometry relative="1" as="geometry">
            <Array as="points">
              <mxPoint x="830" y="600" />
            </Array>
          </mxGeometry>
        </mxCell>
        <mxCell id="sbcRyJg-CCsPc8LKmD8r-5" value="has" style="edgeLabel;html=1;align=center;verticalAlign=middle;resizable=0;points=[];" connectable="0" vertex="1" parent="UHfOFCRN1A1ynxpq6Cjz-110">
          <mxGeometry x="-0.0879" y="-1" relative="1" as="geometry">
            <mxPoint as="offset" />
          </mxGeometry>
        </mxCell>
        <mxCell id="sbcRyJg-CCsPc8LKmD8r-6" value="1" style="edgeLabel;html=1;align=center;verticalAlign=middle;resizable=0;points=[];" connectable="0" vertex="1" parent="UHfOFCRN1A1ynxpq6Cjz-110">
          <mxGeometry x="-0.9338" y="1" relative="1" as="geometry">
            <mxPoint as="offset" />
          </mxGeometry>
        </mxCell>
        <mxCell id="sbcRyJg-CCsPc8LKmD8r-7" value="0..*" style="edgeLabel;html=1;align=center;verticalAlign=middle;resizable=0;points=[];" connectable="0" vertex="1" parent="UHfOFCRN1A1ynxpq6Cjz-110">
          <mxGeometry x="0.9539" y="2" relative="1" as="geometry">
            <mxPoint as="offset" />
          </mxGeometry>
        </mxCell>
        <mxCell id="sbcRyJg-CCsPc8LKmD8r-4" style="edgeStyle=orthogonalEdgeStyle;rounded=0;orthogonalLoop=1;jettySize=auto;html=1;startArrow=none;startFill=0;endArrow=none;endFill=0;" edge="1" parent="WIyWlLk6GJQsqaUBKTNV-1" source="o6BWr_yjtG34OBSjzBK7-42" target="o6BWr_yjtG34OBSjzBK7-0">
          <mxGeometry relative="1" as="geometry">
            <Array as="points">
              <mxPoint x="-120" y="890" />
            </Array>
          </mxGeometry>
        </mxCell>
        <mxCell id="sbcRyJg-CCsPc8LKmD8r-39" value="has" style="edgeLabel;html=1;align=center;verticalAlign=middle;resizable=0;points=[];fontFamily=Helvetica;fontSize=11;fontColor=default;labelBackgroundColor=default;" connectable="0" vertex="1" parent="sbcRyJg-CCsPc8LKmD8r-4">
          <mxGeometry x="-0.1684" y="1" relative="1" as="geometry">
            <mxPoint x="1" as="offset" />
          </mxGeometry>
        </mxCell>
        <mxCell id="sbcRyJg-CCsPc8LKmD8r-41" value="1" style="edgeLabel;html=1;align=center;verticalAlign=middle;resizable=0;points=[];fontFamily=Helvetica;fontSize=11;fontColor=default;labelBackgroundColor=default;" connectable="0" vertex="1" parent="sbcRyJg-CCsPc8LKmD8r-4">
          <mxGeometry x="0.9731" y="1" relative="1" as="geometry">
            <mxPoint as="offset" />
          </mxGeometry>
        </mxCell>
        <mxCell id="sbcRyJg-CCsPc8LKmD8r-42" value="1..*" style="edgeLabel;html=1;align=center;verticalAlign=middle;resizable=0;points=[];fontFamily=Helvetica;fontSize=11;fontColor=default;labelBackgroundColor=default;" connectable="0" vertex="1" parent="sbcRyJg-CCsPc8LKmD8r-4">
          <mxGeometry x="-0.9676" relative="1" as="geometry">
            <mxPoint x="1" as="offset" />
          </mxGeometry>
        </mxCell>
        <mxCell id="sbcRyJg-CCsPc8LKmD8r-35" style="edgeStyle=orthogonalEdgeStyle;rounded=0;orthogonalLoop=1;jettySize=auto;html=1;endArrow=diamondThin;endFill=1;endSize=15;" edge="1" parent="WIyWlLk6GJQsqaUBKTNV-1" source="o6BWr_yjtG34OBSjzBK7-42" target="o6BWr_yjtG34OBSjzBK7-24">
          <mxGeometry relative="1" as="geometry">
            <Array as="points">
              <mxPoint x="1330" y="960" />
              <mxPoint x="-770" y="960" />
            </Array>
          </mxGeometry>
        </mxCell>
        <mxCell id="sbcRyJg-CCsPc8LKmD8r-36" value="has" style="edgeLabel;html=1;align=center;verticalAlign=middle;resizable=0;points=[];" connectable="0" vertex="1" parent="sbcRyJg-CCsPc8LKmD8r-35">
          <mxGeometry x="-0.0706" y="-4" relative="1" as="geometry">
            <mxPoint x="-1" as="offset" />
          </mxGeometry>
        </mxCell>
        <mxCell id="sbcRyJg-CCsPc8LKmD8r-37" value="1" style="edgeLabel;html=1;align=center;verticalAlign=middle;resizable=0;points=[];" connectable="0" vertex="1" parent="sbcRyJg-CCsPc8LKmD8r-35">
          <mxGeometry x="-0.9798" y="6" relative="1" as="geometry">
            <mxPoint y="-1" as="offset" />
          </mxGeometry>
        </mxCell>
        <mxCell id="sbcRyJg-CCsPc8LKmD8r-38" value="1" style="edgeLabel;html=1;align=center;verticalAlign=middle;resizable=0;points=[];fontFamily=Helvetica;fontSize=11;fontColor=default;labelBackgroundColor=default;" connectable="0" vertex="1" parent="sbcRyJg-CCsPc8LKmD8r-35">
          <mxGeometry x="0.9763" y="4" relative="1" as="geometry">
            <mxPoint as="offset" />
          </mxGeometry>
        </mxCell>
        <mxCell id="o6BWr_yjtG34OBSjzBK7-42" value="Offer" style="swimlane;fontStyle=0;align=center;verticalAlign=top;childLayout=stackLayout;horizontal=1;startSize=26;horizontalStack=0;resizeParent=1;resizeLast=0;collapsible=1;marginBottom=0;rounded=0;shadow=0;strokeWidth=1;" vertex="1" parent="WIyWlLk6GJQsqaUBKTNV-1">
          <mxGeometry x="1250" y="530" width="160" height="372" as="geometry">
            <mxRectangle x="530" y="630" width="160" height="26" as="alternateBounds" />
          </mxGeometry>
        </mxCell>
        <mxCell id="o6BWr_yjtG34OBSjzBK7-43" value="+ offered_by: User" style="text;align=left;verticalAlign=top;spacingLeft=4;spacingRight=4;overflow=hidden;rotatable=0;points=[[0,0.5],[1,0.5]];portConstraint=eastwest;" vertex="1" parent="o6BWr_yjtG34OBSjzBK7-42">
          <mxGeometry y="26" width="160" height="26" as="geometry" />
        </mxCell>
        <mxCell id="o6BWr_yjtG34OBSjzBK7-44" value="+ listing: Listing" style="text;align=left;verticalAlign=top;spacingLeft=4;spacingRight=4;overflow=hidden;rotatable=0;points=[[0,0.5],[1,0.5]];portConstraint=eastwest;rounded=0;shadow=0;html=0;" vertex="1" parent="o6BWr_yjtG34OBSjzBK7-42">
          <mxGeometry y="52" width="160" height="26" as="geometry" />
        </mxCell>
        <mxCell id="o6BWr_yjtG34OBSjzBK7-45" value="+ price: float&#xa;" style="text;align=left;verticalAlign=top;spacingLeft=4;spacingRight=4;overflow=hidden;rotatable=0;points=[[0,0.5],[1,0.5]];portConstraint=eastwest;rounded=0;shadow=0;html=0;" vertex="1" parent="o6BWr_yjtG34OBSjzBK7-42">
          <mxGeometry y="78" width="160" height="26" as="geometry" />
        </mxCell>
        <mxCell id="UHfOFCRN1A1ynxpq6Cjz-28" value="+ status: OFFER_STATUS&#xa;" style="text;align=left;verticalAlign=top;spacingLeft=4;spacingRight=4;overflow=hidden;rotatable=0;points=[[0,0.5],[1,0.5]];portConstraint=eastwest;rounded=0;shadow=0;html=0;" vertex="1" parent="o6BWr_yjtG34OBSjzBK7-42">
          <mxGeometry y="104" width="160" height="26" as="geometry" />
        </mxCell>
        <mxCell id="UHfOFCRN1A1ynxpq6Cjz-29" value="+ created_at: datetime" style="text;align=left;verticalAlign=top;spacingLeft=4;spacingRight=4;overflow=hidden;rotatable=0;points=[[0,0.5],[1,0.5]];portConstraint=eastwest;rounded=0;shadow=0;html=0;" vertex="1" parent="o6BWr_yjtG34OBSjzBK7-42">
          <mxGeometry y="130" width="160" height="26" as="geometry" />
        </mxCell>
        <mxCell id="sbcRyJg-CCsPc8LKmD8r-30" value="+ scheduled_start: datetime" style="text;align=left;verticalAlign=top;spacingLeft=4;spacingRight=4;overflow=hidden;rotatable=0;points=[[0,0.5],[1,0.5]];portConstraint=eastwest;rounded=0;shadow=0;html=0;" vertex="1" parent="o6BWr_yjtG34OBSjzBK7-42">
          <mxGeometry y="156" width="160" height="26" as="geometry" />
        </mxCell>
        <mxCell id="sbcRyJg-CCsPc8LKmD8r-31" value="+ scheduled_end: datetime" style="text;align=left;verticalAlign=top;spacingLeft=4;spacingRight=4;overflow=hidden;rotatable=0;points=[[0,0.5],[1,0.5]];portConstraint=eastwest;rounded=0;shadow=0;html=0;" vertex="1" parent="o6BWr_yjtG34OBSjzBK7-42">
          <mxGeometry y="182" width="160" height="26" as="geometry" />
        </mxCell>
        <mxCell id="sbcRyJg-CCsPc8LKmD8r-32" value="+ time_unit: TimeUnit" style="text;align=left;verticalAlign=top;spacingLeft=4;spacingRight=4;overflow=hidden;rotatable=0;points=[[0,0.5],[1,0.5]];portConstraint=eastwest;rounded=0;shadow=0;html=0;" vertex="1" parent="o6BWr_yjtG34OBSjzBK7-42">
          <mxGeometry y="208" width="160" height="26" as="geometry" />
        </mxCell>
        <mxCell id="sbcRyJg-CCsPc8LKmD8r-33" value="+ time_delta: int" style="text;align=left;verticalAlign=top;spacingLeft=4;spacingRight=4;overflow=hidden;rotatable=0;points=[[0,0.5],[1,0.5]];portConstraint=eastwest;rounded=0;shadow=0;html=0;" vertex="1" parent="o6BWr_yjtG34OBSjzBK7-42">
          <mxGeometry y="234" width="160" height="26" as="geometry" />
        </mxCell>
        <mxCell id="o6BWr_yjtG34OBSjzBK7-46" value="" style="line;html=1;strokeWidth=1;align=left;verticalAlign=middle;spacingTop=-1;spacingLeft=3;spacingRight=3;rotatable=0;labelPosition=right;points=[];portConstraint=eastwest;" vertex="1" parent="o6BWr_yjtG34OBSjzBK7-42">
          <mxGeometry y="260" width="160" height="8" as="geometry" />
        </mxCell>
        <mxCell id="o6BWr_yjtG34OBSjzBK7-47" value="+ accept(): void&#xa;" style="text;align=left;verticalAlign=top;spacingLeft=4;spacingRight=4;overflow=hidden;rotatable=0;points=[[0,0.5],[1,0.5]];portConstraint=eastwest;" vertex="1" parent="o6BWr_yjtG34OBSjzBK7-42">
          <mxGeometry y="268" width="160" height="26" as="geometry" />
        </mxCell>
        <mxCell id="UHfOFCRN1A1ynxpq6Cjz-25" value="+ reject(): void" style="text;align=left;verticalAlign=top;spacingLeft=4;spacingRight=4;overflow=hidden;rotatable=0;points=[[0,0.5],[1,0.5]];portConstraint=eastwest;" vertex="1" parent="o6BWr_yjtG34OBSjzBK7-42">
          <mxGeometry y="294" width="160" height="26" as="geometry" />
        </mxCell>
        <mxCell id="UHfOFCRN1A1ynxpq6Cjz-26" value="+ paid(): void" style="text;align=left;verticalAlign=top;spacingLeft=4;spacingRight=4;overflow=hidden;rotatable=0;points=[[0,0.5],[1,0.5]];portConstraint=eastwest;" vertex="1" parent="o6BWr_yjtG34OBSjzBK7-42">
          <mxGeometry y="320" width="160" height="26" as="geometry" />
        </mxCell>
        <mxCell id="UHfOFCRN1A1ynxpq6Cjz-27" value="+ decline(): void" style="text;align=left;verticalAlign=top;spacingLeft=4;spacingRight=4;overflow=hidden;rotatable=0;points=[[0,0.5],[1,0.5]];portConstraint=eastwest;" vertex="1" parent="o6BWr_yjtG34OBSjzBK7-42">
          <mxGeometry y="346" width="160" height="26" as="geometry" />
        </mxCell>
        <mxCell id="UHfOFCRN1A1ynxpq6Cjz-71" style="edgeStyle=orthogonalEdgeStyle;shape=connector;rounded=0;orthogonalLoop=1;jettySize=auto;html=1;strokeColor=default;align=center;verticalAlign=middle;fontFamily=Helvetica;fontSize=11;fontColor=default;labelBackgroundColor=default;endArrow=none;endFill=0;startArrow=diamondThin;startFill=1;endSize=15;startSize=15;" edge="1" parent="WIyWlLk6GJQsqaUBKTNV-1" source="o6BWr_yjtG34OBSjzBK7-48" target="UHfOFCRN1A1ynxpq6Cjz-45">
          <mxGeometry relative="1" as="geometry">
            <Array as="points">
              <mxPoint x="960" y="404" />
              <mxPoint x="960" y="404" />
            </Array>
          </mxGeometry>
        </mxCell>
        <mxCell id="UHfOFCRN1A1ynxpq6Cjz-94" value="1" style="edgeLabel;html=1;align=center;verticalAlign=middle;resizable=0;points=[];fontFamily=Helvetica;fontSize=11;fontColor=default;labelBackgroundColor=default;" connectable="0" vertex="1" parent="UHfOFCRN1A1ynxpq6Cjz-71">
          <mxGeometry x="-0.6143" y="1" relative="1" as="geometry">
            <mxPoint y="-14" as="offset" />
          </mxGeometry>
        </mxCell>
        <mxCell id="UHfOFCRN1A1ynxpq6Cjz-95" value="1" style="edgeLabel;html=1;align=center;verticalAlign=middle;resizable=0;points=[];fontFamily=Helvetica;fontSize=11;fontColor=default;labelBackgroundColor=default;" connectable="0" vertex="1" parent="UHfOFCRN1A1ynxpq6Cjz-71">
          <mxGeometry x="0.7214" y="1" relative="1" as="geometry">
            <mxPoint y="-13" as="offset" />
          </mxGeometry>
        </mxCell>
        <mxCell id="UHfOFCRN1A1ynxpq6Cjz-138" style="edgeStyle=orthogonalEdgeStyle;shape=connector;rounded=0;orthogonalLoop=1;jettySize=auto;html=1;strokeColor=default;align=center;verticalAlign=middle;fontFamily=Helvetica;fontSize=11;fontColor=default;labelBackgroundColor=default;startSize=6;endArrow=none;endFill=0;endSize=6;startArrow=none;startFill=0;" edge="1" parent="WIyWlLk6GJQsqaUBKTNV-1" source="o6BWr_yjtG34OBSjzBK7-48" target="zkfFHV4jXpPFQw0GAbJ--0">
          <mxGeometry relative="1" as="geometry">
            <Array as="points">
              <mxPoint x="570" y="440" />
              <mxPoint x="570" y="440" />
            </Array>
          </mxGeometry>
        </mxCell>
        <mxCell id="UHfOFCRN1A1ynxpq6Cjz-139" value="1" style="edgeLabel;html=1;align=center;verticalAlign=middle;resizable=0;points=[];fontFamily=Helvetica;fontSize=11;fontColor=default;labelBackgroundColor=default;" connectable="0" vertex="1" parent="UHfOFCRN1A1ynxpq6Cjz-138">
          <mxGeometry x="0.9139" y="-3" relative="1" as="geometry">
            <mxPoint y="-9" as="offset" />
          </mxGeometry>
        </mxCell>
        <mxCell id="UHfOFCRN1A1ynxpq6Cjz-141" value="0..*" style="edgeLabel;html=1;align=center;verticalAlign=middle;resizable=0;points=[];fontFamily=Helvetica;fontSize=11;fontColor=default;labelBackgroundColor=default;" connectable="0" vertex="1" parent="UHfOFCRN1A1ynxpq6Cjz-138">
          <mxGeometry x="-0.7699" y="-1" relative="1" as="geometry">
            <mxPoint x="13" y="-9" as="offset" />
          </mxGeometry>
        </mxCell>
        <mxCell id="UHfOFCRN1A1ynxpq6Cjz-142" value="makes" style="edgeLabel;html=1;align=center;verticalAlign=middle;resizable=0;points=[];fontFamily=Helvetica;fontSize=11;fontColor=default;labelBackgroundColor=default;" connectable="0" vertex="1" parent="UHfOFCRN1A1ynxpq6Cjz-138">
          <mxGeometry x="0.0599" y="2" relative="1" as="geometry">
            <mxPoint x="10" y="-2" as="offset" />
          </mxGeometry>
        </mxCell>
        <mxCell id="o6BWr_yjtG34OBSjzBK7-48" value="Transaction" style="swimlane;fontStyle=0;align=center;verticalAlign=top;childLayout=stackLayout;horizontal=1;startSize=26;horizontalStack=0;resizeParent=1;resizeLast=0;collapsible=1;marginBottom=0;rounded=0;shadow=0;strokeWidth=1;" vertex="1" parent="WIyWlLk6GJQsqaUBKTNV-1">
          <mxGeometry x="730" y="270" width="205" height="294" as="geometry">
            <mxRectangle x="655" y="270" width="160" height="26" as="alternateBounds" />
          </mxGeometry>
        </mxCell>
        <mxCell id="o6BWr_yjtG34OBSjzBK7-49" value="+ user: User" style="text;align=left;verticalAlign=top;spacingLeft=4;spacingRight=4;overflow=hidden;rotatable=0;points=[[0,0.5],[1,0.5]];portConstraint=eastwest;" vertex="1" parent="o6BWr_yjtG34OBSjzBK7-48">
          <mxGeometry y="26" width="205" height="26" as="geometry" />
        </mxCell>
        <mxCell id="o6BWr_yjtG34OBSjzBK7-50" value="+ offer: Offer" style="text;align=left;verticalAlign=top;spacingLeft=4;spacingRight=4;overflow=hidden;rotatable=0;points=[[0,0.5],[1,0.5]];portConstraint=eastwest;rounded=0;shadow=0;html=0;" vertex="1" parent="o6BWr_yjtG34OBSjzBK7-48">
          <mxGeometry y="52" width="205" height="26" as="geometry" />
        </mxCell>
        <mxCell id="o6BWr_yjtG34OBSjzBK7-51" value="+ amount: float" style="text;align=left;verticalAlign=top;spacingLeft=4;spacingRight=4;overflow=hidden;rotatable=0;points=[[0,0.5],[1,0.5]];portConstraint=eastwest;rounded=0;shadow=0;html=0;" vertex="1" parent="o6BWr_yjtG34OBSjzBK7-48">
          <mxGeometry y="78" width="205" height="26" as="geometry" />
        </mxCell>
        <mxCell id="UHfOFCRN1A1ynxpq6Cjz-52" value="+ status: TRANSACTION_STATUS" style="text;align=left;verticalAlign=top;spacingLeft=4;spacingRight=4;overflow=hidden;rotatable=0;points=[[0,0.5],[1,0.5]];portConstraint=eastwest;rounded=0;shadow=0;html=0;" vertex="1" parent="o6BWr_yjtG34OBSjzBK7-48">
          <mxGeometry y="104" width="205" height="26" as="geometry" />
        </mxCell>
        <mxCell id="UHfOFCRN1A1ynxpq6Cjz-54" value="+ payment_id: string" style="text;align=left;verticalAlign=top;spacingLeft=4;spacingRight=4;overflow=hidden;rotatable=0;points=[[0,0.5],[1,0.5]];portConstraint=eastwest;rounded=0;shadow=0;html=0;" vertex="1" parent="o6BWr_yjtG34OBSjzBK7-48">
          <mxGeometry y="130" width="205" height="26" as="geometry" />
        </mxCell>
        <mxCell id="UHfOFCRN1A1ynxpq6Cjz-53" value="+ created_at: datetime" style="text;align=left;verticalAlign=top;spacingLeft=4;spacingRight=4;overflow=hidden;rotatable=0;points=[[0,0.5],[1,0.5]];portConstraint=eastwest;rounded=0;shadow=0;html=0;" vertex="1" parent="o6BWr_yjtG34OBSjzBK7-48">
          <mxGeometry y="156" width="205" height="26" as="geometry" />
        </mxCell>
        <mxCell id="vJOHHlm-QvzsCf7h9H-8-12" value="+ updated_at: datetime" style="text;align=left;verticalAlign=top;spacingLeft=4;spacingRight=4;overflow=hidden;rotatable=0;points=[[0,0.5],[1,0.5]];portConstraint=eastwest;rounded=0;shadow=0;html=0;" vertex="1" parent="o6BWr_yjtG34OBSjzBK7-48">
          <mxGeometry y="182" width="205" height="26" as="geometry" />
        </mxCell>
        <mxCell id="o6BWr_yjtG34OBSjzBK7-52" value="" style="line;html=1;strokeWidth=1;align=left;verticalAlign=middle;spacingTop=-1;spacingLeft=3;spacingRight=3;rotatable=0;labelPosition=right;points=[];portConstraint=eastwest;" vertex="1" parent="o6BWr_yjtG34OBSjzBK7-48">
          <mxGeometry y="208" width="205" height="8" as="geometry" />
        </mxCell>
        <mxCell id="o6BWr_yjtG34OBSjzBK7-53" value="+ complete(): void" style="text;align=left;verticalAlign=top;spacingLeft=4;spacingRight=4;overflow=hidden;rotatable=0;points=[[0,0.5],[1,0.5]];portConstraint=eastwest;" vertex="1" parent="o6BWr_yjtG34OBSjzBK7-48">
          <mxGeometry y="216" width="205" height="26" as="geometry" />
        </mxCell>
        <mxCell id="UHfOFCRN1A1ynxpq6Cjz-55" value="+ fail(): void" style="text;align=left;verticalAlign=top;spacingLeft=4;spacingRight=4;overflow=hidden;rotatable=0;points=[[0,0.5],[1,0.5]];portConstraint=eastwest;" vertex="1" parent="o6BWr_yjtG34OBSjzBK7-48">
          <mxGeometry y="242" width="205" height="26" as="geometry" />
        </mxCell>
        <mxCell id="UHfOFCRN1A1ynxpq6Cjz-56" value="+ refund(): void" style="text;align=left;verticalAlign=top;spacingLeft=4;spacingRight=4;overflow=hidden;rotatable=0;points=[[0,0.5],[1,0.5]];portConstraint=eastwest;" vertex="1" parent="o6BWr_yjtG34OBSjzBK7-48">
          <mxGeometry y="268" width="205" height="26" as="geometry" />
        </mxCell>
        <mxCell id="BERN74U3gorJlpF5LtXb-9" style="edgeStyle=orthogonalEdgeStyle;rounded=0;orthogonalLoop=1;jettySize=auto;html=1;entryX=0.5;entryY=0;entryDx=0;entryDy=0;endArrow=none;endFill=0;" edge="1" parent="WIyWlLk6GJQsqaUBKTNV-1" source="o6BWr_yjtG34OBSjzBK7-54" target="zkfFHV4jXpPFQw0GAbJ--0">
          <mxGeometry relative="1" as="geometry" />
        </mxCell>
        <mxCell id="o6BWr_yjtG34OBSjzBK7-54" value="UserController" style="swimlane;fontStyle=0;align=center;verticalAlign=top;childLayout=stackLayout;horizontal=1;startSize=26;horizontalStack=0;resizeParent=1;resizeLast=0;collapsible=1;marginBottom=0;rounded=0;shadow=0;strokeWidth=1;" vertex="1" parent="WIyWlLk6GJQsqaUBKTNV-1">
          <mxGeometry x="122.39" y="-90" width="160" height="140" as="geometry">
            <mxRectangle x="220" y="120" width="160" height="26" as="alternateBounds" />
          </mxGeometry>
        </mxCell>
        <mxCell id="o6BWr_yjtG34OBSjzBK7-57" value="- queryset: User" style="text;align=left;verticalAlign=top;spacingLeft=4;spacingRight=4;overflow=hidden;rotatable=0;points=[[0,0.5],[1,0.5]];portConstraint=eastwest;rounded=0;shadow=0;html=0;" vertex="1" parent="o6BWr_yjtG34OBSjzBK7-54">
          <mxGeometry y="26" width="160" height="26" as="geometry" />
        </mxCell>
        <mxCell id="o6BWr_yjtG34OBSjzBK7-58" value="" style="line;html=1;strokeWidth=1;align=left;verticalAlign=middle;spacingTop=-1;spacingLeft=3;spacingRight=3;rotatable=0;labelPosition=right;points=[];portConstraint=eastwest;" vertex="1" parent="o6BWr_yjtG34OBSjzBK7-54">
          <mxGeometry y="52" width="160" height="8" as="geometry" />
        </mxCell>
        <mxCell id="o6BWr_yjtG34OBSjzBK7-59" value="+get()" style="text;align=left;verticalAlign=top;spacingLeft=4;spacingRight=4;overflow=hidden;rotatable=0;points=[[0,0.5],[1,0.5]];portConstraint=eastwest;" vertex="1" parent="o6BWr_yjtG34OBSjzBK7-54">
          <mxGeometry y="60" width="160" height="26" as="geometry" />
        </mxCell>
        <mxCell id="UHfOFCRN1A1ynxpq6Cjz-0" value="+post()" style="text;align=left;verticalAlign=top;spacingLeft=4;spacingRight=4;overflow=hidden;rotatable=0;points=[[0,0.5],[1,0.5]];portConstraint=eastwest;" vertex="1" parent="o6BWr_yjtG34OBSjzBK7-54">
          <mxGeometry y="86" width="160" height="26" as="geometry" />
        </mxCell>
        <mxCell id="UHfOFCRN1A1ynxpq6Cjz-1" value="+put()" style="text;align=left;verticalAlign=top;spacingLeft=4;spacingRight=4;overflow=hidden;rotatable=0;points=[[0,0.5],[1,0.5]];portConstraint=eastwest;" vertex="1" parent="o6BWr_yjtG34OBSjzBK7-54">
          <mxGeometry y="112" width="160" height="26" as="geometry" />
        </mxCell>
        <mxCell id="o6BWr_yjtG34OBSjzBK7-66" value="ListingController" style="swimlane;fontStyle=0;align=center;verticalAlign=top;childLayout=stackLayout;horizontal=1;startSize=26;horizontalStack=0;resizeParent=1;resizeLast=0;collapsible=1;marginBottom=0;rounded=0;shadow=0;strokeWidth=1;" vertex="1" parent="WIyWlLk6GJQsqaUBKTNV-1">
          <mxGeometry x="-380" y="-90" width="160" height="130" as="geometry">
            <mxRectangle x="220" y="120" width="160" height="26" as="alternateBounds" />
          </mxGeometry>
        </mxCell>
        <mxCell id="o6BWr_yjtG34OBSjzBK7-67" value="- queryset: Listing" style="text;align=left;verticalAlign=top;spacingLeft=4;spacingRight=4;overflow=hidden;rotatable=0;points=[[0,0.5],[1,0.5]];portConstraint=eastwest;" vertex="1" parent="o6BWr_yjtG34OBSjzBK7-66">
          <mxGeometry y="26" width="160" height="26" as="geometry" />
        </mxCell>
        <mxCell id="o6BWr_yjtG34OBSjzBK7-70" value="" style="line;html=1;strokeWidth=1;align=left;verticalAlign=middle;spacingTop=-1;spacingLeft=3;spacingRight=3;rotatable=0;labelPosition=right;points=[];portConstraint=eastwest;" vertex="1" parent="o6BWr_yjtG34OBSjzBK7-66">
          <mxGeometry y="52" width="160" height="8" as="geometry" />
        </mxCell>
        <mxCell id="o6BWr_yjtG34OBSjzBK7-71" value="+get()&#xa;+post()&#xa;+put()&#xa;+delete()&#xa;" style="text;align=left;verticalAlign=top;spacingLeft=4;spacingRight=4;overflow=hidden;rotatable=0;points=[[0,0.5],[1,0.5]];portConstraint=eastwest;" vertex="1" parent="o6BWr_yjtG34OBSjzBK7-66">
          <mxGeometry y="60" width="160" height="70" as="geometry" />
        </mxCell>
        <mxCell id="BERN74U3gorJlpF5LtXb-13" style="edgeStyle=orthogonalEdgeStyle;rounded=0;orthogonalLoop=1;jettySize=auto;html=1;entryX=0.5;entryY=0;entryDx=0;entryDy=0;endArrow=none;endFill=0;" edge="1" parent="WIyWlLk6GJQsqaUBKTNV-1" source="o6BWr_yjtG34OBSjzBK7-72" target="o6BWr_yjtG34OBSjzBK7-48">
          <mxGeometry relative="1" as="geometry" />
        </mxCell>
        <mxCell id="o6BWr_yjtG34OBSjzBK7-72" value="TransactionController" style="swimlane;fontStyle=0;align=center;verticalAlign=top;childLayout=stackLayout;horizontal=1;startSize=26;horizontalStack=0;resizeParent=1;resizeLast=0;collapsible=1;marginBottom=0;rounded=0;shadow=0;strokeWidth=1;" vertex="1" parent="WIyWlLk6GJQsqaUBKTNV-1">
          <mxGeometry x="752.5" y="-90" width="160" height="114" as="geometry">
            <mxRectangle x="220" y="120" width="160" height="26" as="alternateBounds" />
          </mxGeometry>
        </mxCell>
        <mxCell id="o6BWr_yjtG34OBSjzBK7-73" value="- queryset: Transaction" style="text;align=left;verticalAlign=top;spacingLeft=4;spacingRight=4;overflow=hidden;rotatable=0;points=[[0,0.5],[1,0.5]];portConstraint=eastwest;" vertex="1" parent="o6BWr_yjtG34OBSjzBK7-72">
          <mxGeometry y="26" width="160" height="26" as="geometry" />
        </mxCell>
        <mxCell id="o6BWr_yjtG34OBSjzBK7-76" value="" style="line;html=1;strokeWidth=1;align=left;verticalAlign=middle;spacingTop=-1;spacingLeft=3;spacingRight=3;rotatable=0;labelPosition=right;points=[];portConstraint=eastwest;" vertex="1" parent="o6BWr_yjtG34OBSjzBK7-72">
          <mxGeometry y="52" width="160" height="8" as="geometry" />
        </mxCell>
        <mxCell id="o6BWr_yjtG34OBSjzBK7-77" value="+get()&#xa;" style="text;align=left;verticalAlign=top;spacingLeft=4;spacingRight=4;overflow=hidden;rotatable=0;points=[[0,0.5],[1,0.5]];portConstraint=eastwest;" vertex="1" parent="o6BWr_yjtG34OBSjzBK7-72">
          <mxGeometry y="60" width="160" height="26" as="geometry" />
        </mxCell>
        <mxCell id="UHfOFCRN1A1ynxpq6Cjz-44" value="+post()" style="text;align=left;verticalAlign=top;spacingLeft=4;spacingRight=4;overflow=hidden;rotatable=0;points=[[0,0.5],[1,0.5]];portConstraint=eastwest;" vertex="1" parent="o6BWr_yjtG34OBSjzBK7-72">
          <mxGeometry y="86" width="160" height="26" as="geometry" />
        </mxCell>
        <mxCell id="BERN74U3gorJlpF5LtXb-10" style="edgeStyle=orthogonalEdgeStyle;rounded=0;orthogonalLoop=1;jettySize=auto;html=1;entryX=0.5;entryY=0;entryDx=0;entryDy=0;endArrow=none;endFill=0;" edge="1" parent="WIyWlLk6GJQsqaUBKTNV-1" source="o6BWr_yjtG34OBSjzBK7-84" target="o6BWr_yjtG34OBSjzBK7-90">
          <mxGeometry relative="1" as="geometry" />
        </mxCell>
        <mxCell id="o6BWr_yjtG34OBSjzBK7-84" value="ReviewController" style="swimlane;fontStyle=0;align=center;verticalAlign=top;childLayout=stackLayout;horizontal=1;startSize=26;horizontalStack=0;resizeParent=1;resizeLast=0;collapsible=1;marginBottom=0;rounded=0;shadow=0;strokeWidth=1;" vertex="1" parent="WIyWlLk6GJQsqaUBKTNV-1">
          <mxGeometry x="510" y="-90" width="160" height="112" as="geometry">
            <mxRectangle x="220" y="120" width="160" height="26" as="alternateBounds" />
          </mxGeometry>
        </mxCell>
        <mxCell id="UHfOFCRN1A1ynxpq6Cjz-79" value="- queryset:Review" style="text;align=left;verticalAlign=top;spacingLeft=4;spacingRight=4;overflow=hidden;rotatable=0;points=[[0,0.5],[1,0.5]];portConstraint=eastwest;rounded=0;shadow=0;html=0;" vertex="1" parent="o6BWr_yjtG34OBSjzBK7-84">
          <mxGeometry y="26" width="160" height="26" as="geometry" />
        </mxCell>
        <mxCell id="UHfOFCRN1A1ynxpq6Cjz-80" value="" style="line;html=1;strokeWidth=1;align=left;verticalAlign=middle;spacingTop=-1;spacingLeft=3;spacingRight=3;rotatable=0;labelPosition=right;points=[];portConstraint=eastwest;" vertex="1" parent="o6BWr_yjtG34OBSjzBK7-84">
          <mxGeometry y="52" width="160" height="8" as="geometry" />
        </mxCell>
        <mxCell id="o6BWr_yjtG34OBSjzBK7-89" value="+get()" style="text;align=left;verticalAlign=top;spacingLeft=4;spacingRight=4;overflow=hidden;rotatable=0;points=[[0,0.5],[1,0.5]];portConstraint=eastwest;" vertex="1" parent="o6BWr_yjtG34OBSjzBK7-84">
          <mxGeometry y="60" width="160" height="26" as="geometry" />
        </mxCell>
        <mxCell id="UHfOFCRN1A1ynxpq6Cjz-5" value="+post()" style="text;align=left;verticalAlign=top;spacingLeft=4;spacingRight=4;overflow=hidden;rotatable=0;points=[[0,0.5],[1,0.5]];portConstraint=eastwest;" vertex="1" parent="o6BWr_yjtG34OBSjzBK7-84">
          <mxGeometry y="86" width="160" height="26" as="geometry" />
        </mxCell>
        <mxCell id="o6BWr_yjtG34OBSjzBK7-90" value="Review" style="swimlane;fontStyle=0;align=center;verticalAlign=top;childLayout=stackLayout;horizontal=1;startSize=26;horizontalStack=0;resizeParent=1;resizeLast=0;collapsible=1;marginBottom=0;rounded=0;shadow=0;strokeWidth=1;" vertex="1" parent="WIyWlLk6GJQsqaUBKTNV-1">
          <mxGeometry x="510" y="210" width="160" height="160" as="geometry">
            <mxRectangle x="220" y="120" width="160" height="26" as="alternateBounds" />
          </mxGeometry>
        </mxCell>
        <mxCell id="o6BWr_yjtG34OBSjzBK7-91" value="+ reviewer: User" style="text;align=left;verticalAlign=top;spacingLeft=4;spacingRight=4;overflow=hidden;rotatable=0;points=[[0,0.5],[1,0.5]];portConstraint=eastwest;" vertex="1" parent="o6BWr_yjtG34OBSjzBK7-90">
          <mxGeometry y="26" width="160" height="26" as="geometry" />
        </mxCell>
        <mxCell id="o6BWr_yjtG34OBSjzBK7-92" value="+ user: User" style="text;align=left;verticalAlign=top;spacingLeft=4;spacingRight=4;overflow=hidden;rotatable=0;points=[[0,0.5],[1,0.5]];portConstraint=eastwest;rounded=0;shadow=0;html=0;" vertex="1" parent="o6BWr_yjtG34OBSjzBK7-90">
          <mxGeometry y="52" width="160" height="26" as="geometry" />
        </mxCell>
        <mxCell id="o6BWr_yjtG34OBSjzBK7-93" value="+ rating: int" style="text;align=left;verticalAlign=top;spacingLeft=4;spacingRight=4;overflow=hidden;rotatable=0;points=[[0,0.5],[1,0.5]];portConstraint=eastwest;rounded=0;shadow=0;html=0;" vertex="1" parent="o6BWr_yjtG34OBSjzBK7-90">
          <mxGeometry y="78" width="160" height="26" as="geometry" />
        </mxCell>
        <mxCell id="UHfOFCRN1A1ynxpq6Cjz-6" value="+ description: string" style="text;align=left;verticalAlign=top;spacingLeft=4;spacingRight=4;overflow=hidden;rotatable=0;points=[[0,0.5],[1,0.5]];portConstraint=eastwest;rounded=0;shadow=0;html=0;" vertex="1" parent="o6BWr_yjtG34OBSjzBK7-90">
          <mxGeometry y="104" width="160" height="26" as="geometry" />
        </mxCell>
        <mxCell id="UHfOFCRN1A1ynxpq6Cjz-7" value="+ created_at: datetime" style="text;align=left;verticalAlign=top;spacingLeft=4;spacingRight=4;overflow=hidden;rotatable=0;points=[[0,0.5],[1,0.5]];portConstraint=eastwest;rounded=0;shadow=0;html=0;" vertex="1" parent="o6BWr_yjtG34OBSjzBK7-90">
          <mxGeometry y="130" width="160" height="26" as="geometry" />
        </mxCell>
        <mxCell id="BERN74U3gorJlpF5LtXb-14" style="edgeStyle=orthogonalEdgeStyle;shape=connector;rounded=0;orthogonalLoop=1;jettySize=auto;html=1;entryX=0.5;entryY=0;entryDx=0;entryDy=0;strokeColor=default;align=center;verticalAlign=middle;fontFamily=Helvetica;fontSize=11;fontColor=default;labelBackgroundColor=default;endArrow=none;endFill=0;" edge="1" parent="WIyWlLk6GJQsqaUBKTNV-1" source="o6BWr_yjtG34OBSjzBK7-102" target="o6BWr_yjtG34OBSjzBK7-66">
          <mxGeometry relative="1" as="geometry" />
        </mxCell>
        <mxCell id="o6BWr_yjtG34OBSjzBK7-102" value="&lt;&lt;interface&gt;&gt;&#xa;ListingView" style="swimlane;align=center;verticalAlign=top;childLayout=stackLayout;horizontal=1;startSize=50;horizontalStack=0;resizeParent=1;resizeLast=0;collapsible=1;marginBottom=0;rounded=0;shadow=0;strokeWidth=1;spacing=2;fontStyle=0" vertex="1" parent="WIyWlLk6GJQsqaUBKTNV-1">
          <mxGeometry x="-380" y="-260" width="160" height="50" as="geometry">
            <mxRectangle x="220" y="120" width="160" height="26" as="alternateBounds" />
          </mxGeometry>
        </mxCell>
        <mxCell id="BERN74U3gorJlpF5LtXb-15" style="edgeStyle=orthogonalEdgeStyle;shape=connector;rounded=0;orthogonalLoop=1;jettySize=auto;html=1;entryX=0.5;entryY=0;entryDx=0;entryDy=0;strokeColor=default;align=center;verticalAlign=middle;fontFamily=Helvetica;fontSize=11;fontColor=default;labelBackgroundColor=default;endArrow=none;endFill=0;" edge="1" parent="WIyWlLk6GJQsqaUBKTNV-1" source="BERN74U3gorJlpF5LtXb-0" target="o6BWr_yjtG34OBSjzBK7-54">
          <mxGeometry relative="1" as="geometry" />
        </mxCell>
        <mxCell id="BERN74U3gorJlpF5LtXb-0" value="&lt;&lt;interface&gt;&gt;&#xa;UserView&#xa;" style="swimlane;align=center;verticalAlign=top;childLayout=stackLayout;horizontal=1;startSize=50;horizontalStack=0;resizeParent=1;resizeLast=0;collapsible=1;marginBottom=0;rounded=0;shadow=0;strokeWidth=1;spacing=2;fontStyle=0" vertex="1" parent="WIyWlLk6GJQsqaUBKTNV-1">
          <mxGeometry x="122.39" y="-260" width="160" height="50" as="geometry">
            <mxRectangle x="220" y="120" width="160" height="26" as="alternateBounds" />
          </mxGeometry>
        </mxCell>
        <mxCell id="BERN74U3gorJlpF5LtXb-16" style="edgeStyle=orthogonalEdgeStyle;shape=connector;rounded=0;orthogonalLoop=1;jettySize=auto;html=1;entryX=0.5;entryY=0;entryDx=0;entryDy=0;strokeColor=default;align=center;verticalAlign=middle;fontFamily=Helvetica;fontSize=11;fontColor=default;labelBackgroundColor=default;endArrow=none;endFill=0;" edge="1" parent="WIyWlLk6GJQsqaUBKTNV-1" source="BERN74U3gorJlpF5LtXb-1" target="o6BWr_yjtG34OBSjzBK7-84">
          <mxGeometry relative="1" as="geometry" />
        </mxCell>
        <mxCell id="BERN74U3gorJlpF5LtXb-1" value="&lt;&lt;interface&gt;&gt;&#xa;ReviewView&#xa;&#xa;" style="swimlane;align=center;verticalAlign=top;childLayout=stackLayout;horizontal=1;startSize=50;horizontalStack=0;resizeParent=1;resizeLast=0;collapsible=1;marginBottom=0;rounded=0;shadow=0;strokeWidth=1;spacing=2;fontStyle=0" vertex="1" parent="WIyWlLk6GJQsqaUBKTNV-1">
          <mxGeometry x="510" y="-260" width="160" height="50" as="geometry">
            <mxRectangle x="220" y="120" width="160" height="26" as="alternateBounds" />
          </mxGeometry>
        </mxCell>
        <mxCell id="UHfOFCRN1A1ynxpq6Cjz-96" style="edgeStyle=orthogonalEdgeStyle;shape=connector;rounded=0;orthogonalLoop=1;jettySize=auto;html=1;entryX=0.5;entryY=0;entryDx=0;entryDy=0;strokeColor=default;align=center;verticalAlign=middle;fontFamily=Helvetica;fontSize=11;fontColor=default;labelBackgroundColor=default;startSize=15;endArrow=none;endFill=0;endSize=15;" edge="1" parent="WIyWlLk6GJQsqaUBKTNV-1" source="BERN74U3gorJlpF5LtXb-2" target="UHfOFCRN1A1ynxpq6Cjz-16">
          <mxGeometry relative="1" as="geometry" />
        </mxCell>
        <mxCell id="BERN74U3gorJlpF5LtXb-2" value="&lt;&lt;interface&gt;&gt;&#xa;OfferView&#xa;&#xa;" style="swimlane;align=center;verticalAlign=top;childLayout=stackLayout;horizontal=1;startSize=50;horizontalStack=0;resizeParent=1;resizeLast=0;collapsible=1;marginBottom=0;rounded=0;shadow=0;strokeWidth=1;spacing=2;fontStyle=0" vertex="1" parent="WIyWlLk6GJQsqaUBKTNV-1">
          <mxGeometry x="1250" y="-260" width="160" height="50" as="geometry">
            <mxRectangle x="220" y="120" width="160" height="26" as="alternateBounds" />
          </mxGeometry>
        </mxCell>
        <mxCell id="BERN74U3gorJlpF5LtXb-8" value="" style="endArrow=none;html=1;rounded=0;entryX=0.5;entryY=1.02;entryDx=0;entryDy=0;entryPerimeter=0;exitX=0.5;exitY=0;exitDx=0;exitDy=0;" edge="1" parent="WIyWlLk6GJQsqaUBKTNV-1" source="o6BWr_yjtG34OBSjzBK7-0" target="o6BWr_yjtG34OBSjzBK7-71">
          <mxGeometry width="50" height="50" relative="1" as="geometry">
            <mxPoint x="-80" y="190" as="sourcePoint" />
            <mxPoint x="-30" y="140" as="targetPoint" />
          </mxGeometry>
        </mxCell>
        <mxCell id="BERN74U3gorJlpF5LtXb-19" style="edgeStyle=orthogonalEdgeStyle;shape=connector;rounded=0;orthogonalLoop=1;jettySize=auto;html=1;entryX=0.5;entryY=0;entryDx=0;entryDy=0;strokeColor=default;align=center;verticalAlign=middle;fontFamily=Helvetica;fontSize=11;fontColor=default;labelBackgroundColor=default;endArrow=none;endFill=0;" edge="1" parent="WIyWlLk6GJQsqaUBKTNV-1" source="BERN74U3gorJlpF5LtXb-18" target="o6BWr_yjtG34OBSjzBK7-72">
          <mxGeometry relative="1" as="geometry" />
        </mxCell>
        <mxCell id="BERN74U3gorJlpF5LtXb-18" value="&lt;&lt;interface&gt;&gt;&#xa;TransactionView&#xa;&#xa;" style="swimlane;align=center;verticalAlign=top;childLayout=stackLayout;horizontal=1;startSize=50;horizontalStack=0;resizeParent=1;resizeLast=0;collapsible=1;marginBottom=0;rounded=0;shadow=0;strokeWidth=1;spacing=2;fontStyle=0" vertex="1" parent="WIyWlLk6GJQsqaUBKTNV-1">
          <mxGeometry x="752.5" y="-260" width="160" height="50" as="geometry">
            <mxRectangle x="220" y="120" width="160" height="26" as="alternateBounds" />
          </mxGeometry>
        </mxCell>
        <mxCell id="UHfOFCRN1A1ynxpq6Cjz-8" style="edgeStyle=orthogonalEdgeStyle;rounded=0;orthogonalLoop=1;jettySize=auto;html=1;entryX=1;entryY=0.5;entryDx=0;entryDy=0;endArrow=none;endFill=0;startArrow=none;startFill=0;" edge="1" parent="WIyWlLk6GJQsqaUBKTNV-1" source="o6BWr_yjtG34OBSjzBK7-92" target="zkfFHV4jXpPFQw0GAbJ--2">
          <mxGeometry relative="1" as="geometry" />
        </mxCell>
        <mxCell id="UHfOFCRN1A1ynxpq6Cjz-137" value="gives" style="edgeLabel;html=1;align=center;verticalAlign=middle;resizable=0;points=[];fontFamily=Helvetica;fontSize=11;fontColor=default;labelBackgroundColor=default;" connectable="0" vertex="1" parent="UHfOFCRN1A1ynxpq6Cjz-8">
          <mxGeometry x="0.0902" y="2" relative="1" as="geometry">
            <mxPoint y="-2" as="offset" />
          </mxGeometry>
        </mxCell>
        <mxCell id="UHfOFCRN1A1ynxpq6Cjz-143" value="1" style="edgeLabel;html=1;align=center;verticalAlign=middle;resizable=0;points=[];fontFamily=Helvetica;fontSize=11;fontColor=default;labelBackgroundColor=default;" connectable="0" vertex="1" parent="UHfOFCRN1A1ynxpq6Cjz-8">
          <mxGeometry x="0.8438" relative="1" as="geometry">
            <mxPoint y="-14" as="offset" />
          </mxGeometry>
        </mxCell>
        <mxCell id="UHfOFCRN1A1ynxpq6Cjz-144" value="0..*" style="edgeLabel;html=1;align=center;verticalAlign=middle;resizable=0;points=[];fontFamily=Helvetica;fontSize=11;fontColor=default;labelBackgroundColor=default;" connectable="0" vertex="1" parent="UHfOFCRN1A1ynxpq6Cjz-8">
          <mxGeometry x="-0.6551" y="-1" relative="1" as="geometry">
            <mxPoint y="-14" as="offset" />
          </mxGeometry>
        </mxCell>
        <mxCell id="UHfOFCRN1A1ynxpq6Cjz-75" style="edgeStyle=orthogonalEdgeStyle;shape=connector;rounded=0;orthogonalLoop=1;jettySize=auto;html=1;entryX=0.5;entryY=0;entryDx=0;entryDy=0;strokeColor=default;align=center;verticalAlign=middle;fontFamily=Helvetica;fontSize=11;fontColor=default;labelBackgroundColor=default;endArrow=none;endFill=0;" edge="1" parent="WIyWlLk6GJQsqaUBKTNV-1" source="UHfOFCRN1A1ynxpq6Cjz-16" target="o6BWr_yjtG34OBSjzBK7-42">
          <mxGeometry relative="1" as="geometry" />
        </mxCell>
        <mxCell id="UHfOFCRN1A1ynxpq6Cjz-16" value="OfferController" style="swimlane;fontStyle=0;align=center;verticalAlign=top;childLayout=stackLayout;horizontal=1;startSize=26;horizontalStack=0;resizeParent=1;resizeLast=0;collapsible=1;marginBottom=0;rounded=0;shadow=0;strokeWidth=1;" vertex="1" parent="WIyWlLk6GJQsqaUBKTNV-1">
          <mxGeometry x="1250" y="-90" width="160" height="138" as="geometry">
            <mxRectangle x="220" y="120" width="160" height="26" as="alternateBounds" />
          </mxGeometry>
        </mxCell>
        <mxCell id="UHfOFCRN1A1ynxpq6Cjz-17" value="- queryset: Offer" style="text;align=left;verticalAlign=top;spacingLeft=4;spacingRight=4;overflow=hidden;rotatable=0;points=[[0,0.5],[1,0.5]];portConstraint=eastwest;rounded=0;shadow=0;html=0;" vertex="1" parent="UHfOFCRN1A1ynxpq6Cjz-16">
          <mxGeometry y="26" width="160" height="26" as="geometry" />
        </mxCell>
        <mxCell id="UHfOFCRN1A1ynxpq6Cjz-18" value="" style="line;html=1;strokeWidth=1;align=left;verticalAlign=middle;spacingTop=-1;spacingLeft=3;spacingRight=3;rotatable=0;labelPosition=right;points=[];portConstraint=eastwest;" vertex="1" parent="UHfOFCRN1A1ynxpq6Cjz-16">
          <mxGeometry y="52" width="160" height="8" as="geometry" />
        </mxCell>
        <mxCell id="UHfOFCRN1A1ynxpq6Cjz-19" value="+get()" style="text;align=left;verticalAlign=top;spacingLeft=4;spacingRight=4;overflow=hidden;rotatable=0;points=[[0,0.5],[1,0.5]];portConstraint=eastwest;" vertex="1" parent="UHfOFCRN1A1ynxpq6Cjz-16">
          <mxGeometry y="60" width="160" height="26" as="geometry" />
        </mxCell>
        <mxCell id="UHfOFCRN1A1ynxpq6Cjz-20" value="+post()" style="text;align=left;verticalAlign=top;spacingLeft=4;spacingRight=4;overflow=hidden;rotatable=0;points=[[0,0.5],[1,0.5]];portConstraint=eastwest;" vertex="1" parent="UHfOFCRN1A1ynxpq6Cjz-16">
          <mxGeometry y="86" width="160" height="26" as="geometry" />
        </mxCell>
        <mxCell id="UHfOFCRN1A1ynxpq6Cjz-21" value="+put()" style="text;align=left;verticalAlign=top;spacingLeft=4;spacingRight=4;overflow=hidden;rotatable=0;points=[[0,0.5],[1,0.5]];portConstraint=eastwest;" vertex="1" parent="UHfOFCRN1A1ynxpq6Cjz-16">
          <mxGeometry y="112" width="160" height="26" as="geometry" />
        </mxCell>
        <mxCell id="UHfOFCRN1A1ynxpq6Cjz-90" style="edgeStyle=orthogonalEdgeStyle;shape=connector;rounded=0;orthogonalLoop=1;jettySize=auto;html=1;strokeColor=default;align=center;verticalAlign=middle;fontFamily=Helvetica;fontSize=11;fontColor=default;labelBackgroundColor=default;endArrow=diamondThin;endFill=1;startSize=15;endSize=15;" edge="1" parent="WIyWlLk6GJQsqaUBKTNV-1" source="UHfOFCRN1A1ynxpq6Cjz-30" target="o6BWr_yjtG34OBSjzBK7-42">
          <mxGeometry relative="1" as="geometry">
            <Array as="points">
              <mxPoint x="1440" y="713" />
              <mxPoint x="1440" y="713" />
            </Array>
          </mxGeometry>
        </mxCell>
        <mxCell id="UHfOFCRN1A1ynxpq6Cjz-92" value="1" style="edgeLabel;html=1;align=center;verticalAlign=middle;resizable=0;points=[];fontFamily=Helvetica;fontSize=11;fontColor=default;labelBackgroundColor=default;" connectable="0" vertex="1" parent="UHfOFCRN1A1ynxpq6Cjz-90">
          <mxGeometry x="0.6667" relative="1" as="geometry">
            <mxPoint y="-13" as="offset" />
          </mxGeometry>
        </mxCell>
        <mxCell id="UHfOFCRN1A1ynxpq6Cjz-93" value="1" style="edgeLabel;html=1;align=center;verticalAlign=middle;resizable=0;points=[];fontFamily=Helvetica;fontSize=11;fontColor=default;labelBackgroundColor=default;" connectable="0" vertex="1" parent="UHfOFCRN1A1ynxpq6Cjz-90">
          <mxGeometry x="-0.7267" y="-1" relative="1" as="geometry">
            <mxPoint y="-12" as="offset" />
          </mxGeometry>
        </mxCell>
        <mxCell id="UHfOFCRN1A1ynxpq6Cjz-30" value="&lt;&lt;enumeration&gt;&gt;&#xa;OFFER_STATUS" style="swimlane;fontStyle=0;align=center;verticalAlign=top;childLayout=stackLayout;horizontal=1;startSize=40;horizontalStack=0;resizeParent=1;resizeLast=0;collapsible=1;marginBottom=0;rounded=0;shadow=0;strokeWidth=1;" vertex="1" parent="WIyWlLk6GJQsqaUBKTNV-1">
          <mxGeometry x="1560" y="628" width="160" height="170" as="geometry">
            <mxRectangle x="220" y="120" width="160" height="26" as="alternateBounds" />
          </mxGeometry>
        </mxCell>
        <mxCell id="UHfOFCRN1A1ynxpq6Cjz-31" value="PENDING    " style="text;align=left;verticalAlign=top;spacingLeft=4;spacingRight=4;overflow=hidden;rotatable=0;points=[[0,0.5],[1,0.5]];portConstraint=eastwest;" vertex="1" parent="UHfOFCRN1A1ynxpq6Cjz-30">
          <mxGeometry y="40" width="160" height="26" as="geometry" />
        </mxCell>
        <mxCell id="UHfOFCRN1A1ynxpq6Cjz-32" value="ACCEPTED" style="text;align=left;verticalAlign=top;spacingLeft=4;spacingRight=4;overflow=hidden;rotatable=0;points=[[0,0.5],[1,0.5]];portConstraint=eastwest;rounded=0;shadow=0;html=0;" vertex="1" parent="UHfOFCRN1A1ynxpq6Cjz-30">
          <mxGeometry y="66" width="160" height="26" as="geometry" />
        </mxCell>
        <mxCell id="UHfOFCRN1A1ynxpq6Cjz-33" value="REJECTED" style="text;align=left;verticalAlign=top;spacingLeft=4;spacingRight=4;overflow=hidden;rotatable=0;points=[[0,0.5],[1,0.5]];portConstraint=eastwest;rounded=0;shadow=0;html=0;" vertex="1" parent="UHfOFCRN1A1ynxpq6Cjz-30">
          <mxGeometry y="92" width="160" height="26" as="geometry" />
        </mxCell>
        <mxCell id="UHfOFCRN1A1ynxpq6Cjz-36" value="PAID" style="text;align=left;verticalAlign=top;spacingLeft=4;spacingRight=4;overflow=hidden;rotatable=0;points=[[0,0.5],[1,0.5]];portConstraint=eastwest;rounded=0;shadow=0;html=0;" vertex="1" parent="UHfOFCRN1A1ynxpq6Cjz-30">
          <mxGeometry y="118" width="160" height="26" as="geometry" />
        </mxCell>
        <mxCell id="UHfOFCRN1A1ynxpq6Cjz-37" value="DECLINED" style="text;align=left;verticalAlign=top;spacingLeft=4;spacingRight=4;overflow=hidden;rotatable=0;points=[[0,0.5],[1,0.5]];portConstraint=eastwest;rounded=0;shadow=0;html=0;" vertex="1" parent="UHfOFCRN1A1ynxpq6Cjz-30">
          <mxGeometry y="144" width="160" height="26" as="geometry" />
        </mxCell>
        <mxCell id="UHfOFCRN1A1ynxpq6Cjz-45" value="&lt;&lt;enumeration&gt;&gt;&#xa;TRANSACTION_STATUS" style="swimlane;fontStyle=0;align=center;verticalAlign=top;childLayout=stackLayout;horizontal=1;startSize=40;horizontalStack=0;resizeParent=1;resizeLast=0;collapsible=1;marginBottom=0;rounded=0;shadow=0;strokeWidth=1;" vertex="1" parent="WIyWlLk6GJQsqaUBKTNV-1">
          <mxGeometry x="1075" y="310" width="160" height="144" as="geometry">
            <mxRectangle x="220" y="120" width="160" height="26" as="alternateBounds" />
          </mxGeometry>
        </mxCell>
        <mxCell id="UHfOFCRN1A1ynxpq6Cjz-46" value="PENDING    " style="text;align=left;verticalAlign=top;spacingLeft=4;spacingRight=4;overflow=hidden;rotatable=0;points=[[0,0.5],[1,0.5]];portConstraint=eastwest;" vertex="1" parent="UHfOFCRN1A1ynxpq6Cjz-45">
          <mxGeometry y="40" width="160" height="26" as="geometry" />
        </mxCell>
        <mxCell id="UHfOFCRN1A1ynxpq6Cjz-47" value="COMPLETED" style="text;align=left;verticalAlign=top;spacingLeft=4;spacingRight=4;overflow=hidden;rotatable=0;points=[[0,0.5],[1,0.5]];portConstraint=eastwest;rounded=0;shadow=0;html=0;" vertex="1" parent="UHfOFCRN1A1ynxpq6Cjz-45">
          <mxGeometry y="66" width="160" height="26" as="geometry" />
        </mxCell>
        <mxCell id="UHfOFCRN1A1ynxpq6Cjz-48" value="FAILED" style="text;align=left;verticalAlign=top;spacingLeft=4;spacingRight=4;overflow=hidden;rotatable=0;points=[[0,0.5],[1,0.5]];portConstraint=eastwest;rounded=0;shadow=0;html=0;" vertex="1" parent="UHfOFCRN1A1ynxpq6Cjz-45">
          <mxGeometry y="92" width="160" height="26" as="geometry" />
        </mxCell>
        <mxCell id="UHfOFCRN1A1ynxpq6Cjz-49" value="REFUNDED" style="text;align=left;verticalAlign=top;spacingLeft=4;spacingRight=4;overflow=hidden;rotatable=0;points=[[0,0.5],[1,0.5]];portConstraint=eastwest;rounded=0;shadow=0;html=0;" vertex="1" parent="UHfOFCRN1A1ynxpq6Cjz-45">
          <mxGeometry y="118" width="160" height="26" as="geometry" />
        </mxCell>
        <mxCell id="sbcRyJg-CCsPc8LKmD8r-21" style="edgeStyle=orthogonalEdgeStyle;rounded=0;orthogonalLoop=1;jettySize=auto;html=1;endArrow=none;endFill=0;startArrow=none;startFill=0;" edge="1" parent="WIyWlLk6GJQsqaUBKTNV-1" source="sbcRyJg-CCsPc8LKmD8r-14" target="zkfFHV4jXpPFQw0GAbJ--0">
          <mxGeometry relative="1" as="geometry">
            <Array as="points">
              <mxPoint x="140" y="680" />
              <mxPoint x="140" y="680" />
            </Array>
          </mxGeometry>
        </mxCell>
        <mxCell id="sbcRyJg-CCsPc8LKmD8r-22" value="1" style="edgeLabel;html=1;align=center;verticalAlign=middle;resizable=0;points=[];" connectable="0" vertex="1" parent="sbcRyJg-CCsPc8LKmD8r-21">
          <mxGeometry x="0.9254" y="-3" relative="1" as="geometry">
            <mxPoint as="offset" />
          </mxGeometry>
        </mxCell>
        <mxCell id="sbcRyJg-CCsPc8LKmD8r-23" value="files" style="edgeLabel;html=1;align=center;verticalAlign=middle;resizable=0;points=[];" connectable="0" vertex="1" parent="sbcRyJg-CCsPc8LKmD8r-21">
          <mxGeometry x="-0.0335" y="-1" relative="1" as="geometry">
            <mxPoint x="1" as="offset" />
          </mxGeometry>
        </mxCell>
        <mxCell id="sbcRyJg-CCsPc8LKmD8r-24" value="0..*" style="edgeLabel;html=1;align=center;verticalAlign=middle;resizable=0;points=[];" connectable="0" vertex="1" parent="sbcRyJg-CCsPc8LKmD8r-21">
          <mxGeometry x="-0.8911" y="-4" relative="1" as="geometry">
            <mxPoint as="offset" />
          </mxGeometry>
        </mxCell>
        <mxCell id="sbcRyJg-CCsPc8LKmD8r-26" style="edgeStyle=orthogonalEdgeStyle;rounded=0;orthogonalLoop=1;jettySize=auto;html=1;endArrow=none;endFill=0;" edge="1" parent="WIyWlLk6GJQsqaUBKTNV-1" source="sbcRyJg-CCsPc8LKmD8r-14" target="o6BWr_yjtG34OBSjzBK7-0">
          <mxGeometry relative="1" as="geometry">
            <Array as="points">
              <mxPoint x="40" y="640" />
              <mxPoint x="-10" y="640" />
            </Array>
          </mxGeometry>
        </mxCell>
        <mxCell id="sbcRyJg-CCsPc8LKmD8r-27" value="has" style="edgeLabel;html=1;align=center;verticalAlign=middle;resizable=0;points=[];" connectable="0" vertex="1" parent="sbcRyJg-CCsPc8LKmD8r-26">
          <mxGeometry y="1" relative="1" as="geometry">
            <mxPoint as="offset" />
          </mxGeometry>
        </mxCell>
        <mxCell id="sbcRyJg-CCsPc8LKmD8r-28" value="1" style="edgeLabel;html=1;align=center;verticalAlign=middle;resizable=0;points=[];" connectable="0" vertex="1" parent="sbcRyJg-CCsPc8LKmD8r-26">
          <mxGeometry x="-0.9323" y="1" relative="1" as="geometry">
            <mxPoint as="offset" />
          </mxGeometry>
        </mxCell>
        <mxCell id="sbcRyJg-CCsPc8LKmD8r-29" value="1" style="edgeLabel;html=1;align=center;verticalAlign=middle;resizable=0;points=[];" connectable="0" vertex="1" parent="sbcRyJg-CCsPc8LKmD8r-26">
          <mxGeometry x="0.8811" y="-1" relative="1" as="geometry">
            <mxPoint as="offset" />
          </mxGeometry>
        </mxCell>
        <mxCell id="sbcRyJg-CCsPc8LKmD8r-14" value="Report" style="swimlane;fontStyle=0;align=center;verticalAlign=top;childLayout=stackLayout;horizontal=1;startSize=26;horizontalStack=0;resizeParent=1;resizeLast=0;collapsible=1;marginBottom=0;rounded=0;shadow=0;strokeWidth=1;" vertex="1" parent="WIyWlLk6GJQsqaUBKTNV-1">
          <mxGeometry x="-10" y="730" width="160" height="140" as="geometry">
            <mxRectangle x="220" y="120" width="160" height="26" as="alternateBounds" />
          </mxGeometry>
        </mxCell>
        <mxCell id="sbcRyJg-CCsPc8LKmD8r-15" value="+ reporter: User" style="text;align=left;verticalAlign=top;spacingLeft=4;spacingRight=4;overflow=hidden;rotatable=0;points=[[0,0.5],[1,0.5]];portConstraint=eastwest;" vertex="1" parent="sbcRyJg-CCsPc8LKmD8r-14">
          <mxGeometry y="26" width="160" height="26" as="geometry" />
        </mxCell>
        <mxCell id="sbcRyJg-CCsPc8LKmD8r-16" value="+ listing: Listing" style="text;align=left;verticalAlign=top;spacingLeft=4;spacingRight=4;overflow=hidden;rotatable=0;points=[[0,0.5],[1,0.5]];portConstraint=eastwest;rounded=0;shadow=0;html=0;" vertex="1" parent="sbcRyJg-CCsPc8LKmD8r-14">
          <mxGeometry y="52" width="160" height="26" as="geometry" />
        </mxCell>
        <mxCell id="sbcRyJg-CCsPc8LKmD8r-17" value="+ reason: string" style="text;align=left;verticalAlign=top;spacingLeft=4;spacingRight=4;overflow=hidden;rotatable=0;points=[[0,0.5],[1,0.5]];portConstraint=eastwest;rounded=0;shadow=0;html=0;" vertex="1" parent="sbcRyJg-CCsPc8LKmD8r-14">
          <mxGeometry y="78" width="160" height="26" as="geometry" />
        </mxCell>
        <mxCell id="sbcRyJg-CCsPc8LKmD8r-19" value="+ created_at: datetime" style="text;align=left;verticalAlign=top;spacingLeft=4;spacingRight=4;overflow=hidden;rotatable=0;points=[[0,0.5],[1,0.5]];portConstraint=eastwest;rounded=0;shadow=0;html=0;" vertex="1" parent="sbcRyJg-CCsPc8LKmD8r-14">
          <mxGeometry y="104" width="160" height="26" as="geometry" />
        </mxCell>
        <mxCell id="vJOHHlm-QvzsCf7h9H-8-21" style="edgeStyle=orthogonalEdgeStyle;rounded=0;orthogonalLoop=1;jettySize=auto;html=1;entryX=0.5;entryY=0;entryDx=0;entryDy=0;endArrow=none;endFill=0;" edge="1" parent="WIyWlLk6GJQsqaUBKTNV-1" source="vJOHHlm-QvzsCf7h9H-8-13" target="vJOHHlm-QvzsCf7h9H-8-14">
          <mxGeometry relative="1" as="geometry" />
        </mxCell>
        <mxCell id="vJOHHlm-QvzsCf7h9H-8-13" value="&lt;&lt;interface&gt;&gt;&#xa;LoginView" style="swimlane;align=center;verticalAlign=top;childLayout=stackLayout;horizontal=1;startSize=50;horizontalStack=0;resizeParent=1;resizeLast=0;collapsible=1;marginBottom=0;rounded=0;shadow=0;strokeWidth=1;spacing=2;fontStyle=0" vertex="1" parent="WIyWlLk6GJQsqaUBKTNV-1">
          <mxGeometry x="-130" y="-260" width="160" height="50" as="geometry">
            <mxRectangle x="220" y="120" width="160" height="26" as="alternateBounds" />
          </mxGeometry>
        </mxCell>
        <mxCell id="vJOHHlm-QvzsCf7h9H-8-20" style="edgeStyle=orthogonalEdgeStyle;rounded=0;orthogonalLoop=1;jettySize=auto;html=1;endArrow=none;endFill=0;" edge="1" parent="WIyWlLk6GJQsqaUBKTNV-1" source="vJOHHlm-QvzsCf7h9H-8-14" target="zkfFHV4jXpPFQw0GAbJ--0">
          <mxGeometry relative="1" as="geometry">
            <Array as="points">
              <mxPoint x="-50" y="70" />
              <mxPoint x="160" y="70" />
            </Array>
          </mxGeometry>
        </mxCell>
        <mxCell id="vJOHHlm-QvzsCf7h9H-8-14" value="LoginController" style="swimlane;fontStyle=0;align=center;verticalAlign=top;childLayout=stackLayout;horizontal=1;startSize=26;horizontalStack=0;resizeParent=1;resizeLast=0;collapsible=1;marginBottom=0;rounded=0;shadow=0;strokeWidth=1;" vertex="1" parent="WIyWlLk6GJQsqaUBKTNV-1">
          <mxGeometry x="-130" y="-90" width="160" height="60" as="geometry">
            <mxRectangle x="220" y="120" width="160" height="26" as="alternateBounds" />
          </mxGeometry>
        </mxCell>
        <mxCell id="vJOHHlm-QvzsCf7h9H-8-18" value="+post()" style="text;align=left;verticalAlign=top;spacingLeft=4;spacingRight=4;overflow=hidden;rotatable=0;points=[[0,0.5],[1,0.5]];portConstraint=eastwest;" vertex="1" parent="vJOHHlm-QvzsCf7h9H-8-14">
          <mxGeometry y="26" width="160" height="26" as="geometry" />
        </mxCell>
        <mxCell id="vJOHHlm-QvzsCf7h9H-8-25" style="edgeStyle=orthogonalEdgeStyle;rounded=0;orthogonalLoop=1;jettySize=auto;html=1;entryX=0.5;entryY=0;entryDx=0;entryDy=0;endArrow=none;endFill=0;" edge="1" parent="WIyWlLk6GJQsqaUBKTNV-1" source="vJOHHlm-QvzsCf7h9H-8-22" target="vJOHHlm-QvzsCf7h9H-8-23">
          <mxGeometry relative="1" as="geometry" />
        </mxCell>
        <mxCell id="vJOHHlm-QvzsCf7h9H-8-22" value="&lt;&lt;interface&gt;&gt;&#xa;ResetPasswordView&#xa;" style="swimlane;align=center;verticalAlign=top;childLayout=stackLayout;horizontal=1;startSize=50;horizontalStack=0;resizeParent=1;resizeLast=0;collapsible=1;marginBottom=0;rounded=0;shadow=0;strokeWidth=1;spacing=2;fontStyle=0" vertex="1" parent="WIyWlLk6GJQsqaUBKTNV-1">
          <mxGeometry x="310" y="-260" width="160" height="50" as="geometry">
            <mxRectangle x="220" y="120" width="160" height="26" as="alternateBounds" />
          </mxGeometry>
        </mxCell>
        <mxCell id="vJOHHlm-QvzsCf7h9H-8-26" style="edgeStyle=orthogonalEdgeStyle;rounded=0;orthogonalLoop=1;jettySize=auto;html=1;entryX=0.75;entryY=0;entryDx=0;entryDy=0;endArrow=none;endFill=0;" edge="1" parent="WIyWlLk6GJQsqaUBKTNV-1" source="vJOHHlm-QvzsCf7h9H-8-23" target="zkfFHV4jXpPFQw0GAbJ--0">
          <mxGeometry relative="1" as="geometry">
            <Array as="points">
              <mxPoint x="390" y="70" />
              <mxPoint x="264" y="70" />
            </Array>
          </mxGeometry>
        </mxCell>
        <mxCell id="vJOHHlm-QvzsCf7h9H-8-23" value="ResetPasswordController" style="swimlane;fontStyle=0;align=center;verticalAlign=top;childLayout=stackLayout;horizontal=1;startSize=26;horizontalStack=0;resizeParent=1;resizeLast=0;collapsible=1;marginBottom=0;rounded=0;shadow=0;strokeWidth=1;" vertex="1" parent="WIyWlLk6GJQsqaUBKTNV-1">
          <mxGeometry x="310" y="-90" width="160" height="60" as="geometry">
            <mxRectangle x="220" y="120" width="160" height="26" as="alternateBounds" />
          </mxGeometry>
        </mxCell>
        <mxCell id="vJOHHlm-QvzsCf7h9H-8-24" value="+post()" style="text;align=left;verticalAlign=top;spacingLeft=4;spacingRight=4;overflow=hidden;rotatable=0;points=[[0,0.5],[1,0.5]];portConstraint=eastwest;" vertex="1" parent="vJOHHlm-QvzsCf7h9H-8-23">
          <mxGeometry y="26" width="160" height="26" as="geometry" />
        </mxCell>
      </root>
    </mxGraphModel>
  </diagram>
</mxfile>
